<svg width="1474" height="954" viewBox="0 0 1474 954" fill="none" xmlns="http://www.w3.org/2000/svg">
<g clip-path="url(#clip0_2564_210)">
<rect width="1474" height="954" fill="white"/>
<path d="M23.1649 90H58.7939V83.1718H45.4002V28.7216H35.8583L23.0774 37.3881V45.4418L35.9458 36.7753H37.6966V83.1718H23.1649V90ZM67.2771 90H102.906V83.1718H89.5125V28.7216H79.9705L67.1896 37.3881V45.4418L80.0581 36.7753H81.8089V83.1718H67.2771V90ZM133.537 27.496C120.581 27.496 111.039 37.3006 111.039 59.3608C111.039 81.421 120.581 91.138 133.537 91.138C146.493 91.138 156.123 81.421 156.123 59.3608C156.123 37.3006 146.493 27.496 133.537 27.496ZM133.537 84.3099C123.382 84.3099 118.743 74.5053 118.743 59.3608C118.743 44.1287 123.382 34.3242 133.537 34.3242C143.779 34.3242 148.419 44.1287 148.419 59.3608C148.419 74.5053 143.779 84.3099 133.537 84.3099ZM166.102 90H201.731V83.1718H188.338V28.7216H178.796L166.015 37.3881V45.4418L178.883 36.7753H180.634V83.1718H166.102V90ZM210.215 90H245.844V83.1718H232.45V28.7216H222.908L210.127 37.3881V45.4418L222.995 36.7753H224.746V83.1718H210.215V90ZM276.475 27.496C263.519 27.496 253.977 37.3006 253.977 59.3608C253.977 81.421 263.519 91.138 276.475 91.138C289.431 91.138 299.06 81.421 299.06 59.3608C299.06 37.3006 289.431 27.496 276.475 27.496ZM276.475 84.3099C266.32 84.3099 261.68 74.5053 261.68 59.3608C261.68 44.1287 266.32 34.3242 276.475 34.3242C286.717 34.3242 291.356 44.1287 291.356 59.3608C291.356 74.5053 286.717 84.3099 276.475 84.3099ZM309.04 90H344.669V83.1718H331.275V28.7216H321.733L308.952 37.3881V45.4418L321.821 36.7753H323.571V83.1718H309.04V90ZM375.3 27.496C362.344 27.496 352.802 37.3006 352.802 59.3608C352.802 81.421 362.344 91.138 375.3 91.138C388.256 91.138 397.885 81.421 397.885 59.3608C397.885 37.3006 388.256 27.496 375.3 27.496ZM375.3 84.3099C365.145 84.3099 360.505 74.5053 360.505 59.3608C360.505 44.1287 365.145 34.3242 375.3 34.3242C385.542 34.3242 390.182 44.1287 390.182 59.3608C390.182 74.5053 385.542 84.3099 375.3 84.3099ZM407.865 90H443.494V83.1718H430.1V28.7216H420.558L407.777 37.3881V45.4418L420.646 36.7753H422.396V83.1718H407.865V90ZM474.125 27.496C461.169 27.496 451.627 37.3006 451.627 59.3608C451.627 81.421 461.169 91.138 474.125 91.138C487.081 91.138 496.71 81.421 496.71 59.3608C496.71 37.3006 487.081 27.496 474.125 27.496ZM474.125 84.3099C463.97 84.3099 459.33 74.5053 459.33 59.3608C459.33 44.1287 463.97 34.3242 474.125 34.3242C484.367 34.3242 489.007 44.1287 489.007 59.3608C489.007 74.5053 484.367 84.3099 474.125 84.3099ZM506.69 90H542.319V83.1718H528.925V28.7216H519.383L506.602 37.3881V45.4418L519.471 36.7753H521.222V83.1718H506.69V90ZM572.95 27.496C559.994 27.496 550.452 37.3006 550.452 59.3608C550.452 81.421 559.994 91.138 572.95 91.138C585.906 91.138 595.535 81.421 595.535 59.3608C595.535 37.3006 585.906 27.496 572.95 27.496ZM572.95 84.3099C562.795 84.3099 558.156 74.5053 558.156 59.3608C558.156 44.1287 562.795 34.3242 572.95 34.3242C583.192 34.3242 587.832 44.1287 587.832 59.3608C587.832 74.5053 583.192 84.3099 572.95 84.3099ZM605.515 90H641.144V83.1718H627.75V28.7216H618.208L605.427 37.3881V45.4418L618.296 36.7753H620.047V83.1718H605.515V90ZM671.775 27.496C658.819 27.496 649.277 37.3006 649.277 59.3608C649.277 81.421 658.819 91.138 671.775 91.138C684.731 91.138 694.36 81.421 694.36 59.3608C694.36 37.3006 684.731 27.496 671.775 27.496ZM671.775 84.3099C661.62 84.3099 656.981 74.5053 656.981 59.3608C656.981 44.1287 661.62 34.3242 671.775 34.3242C682.017 34.3242 686.657 44.1287 686.657 59.3608C686.657 74.5053 682.017 84.3099 671.775 84.3099ZM726.488 27.496C713.532 27.496 703.99 37.3006 703.99 59.3608C703.99 81.421 713.532 91.138 726.488 91.138C739.444 91.138 749.073 81.421 749.073 59.3608C749.073 37.3006 739.444 27.496 726.488 27.496ZM726.488 84.3099C716.333 84.3099 711.694 74.5053 711.694 59.3608C711.694 44.1287 716.333 34.3242 726.488 34.3242C736.73 34.3242 741.37 44.1287 741.37 59.3608C741.37 74.5053 736.73 84.3099 726.488 84.3099ZM759.053 90H794.682V83.1718H781.288V28.7216H771.746L758.965 37.3881V45.4418L771.834 36.7753H773.585V83.1718H759.053V90ZM825.313 27.496C812.357 27.496 802.815 37.3006 802.815 59.3608C802.815 81.421 812.357 91.138 825.313 91.138C838.269 91.138 847.899 81.421 847.899 59.3608C847.899 37.3006 838.269 27.496 825.313 27.496ZM825.313 84.3099C815.158 84.3099 810.519 74.5053 810.519 59.3608C810.519 44.1287 815.158 34.3242 825.313 34.3242C835.555 34.3242 840.195 44.1287 840.195 59.3608C840.195 74.5053 835.555 84.3099 825.313 84.3099ZM857.878 90H893.507V83.1718H880.113V28.7216H870.571L857.791 37.3881V45.4418L870.659 36.7753H872.41V83.1718H857.878V90ZM924.138 27.496C911.182 27.496 901.64 37.3006 901.64 59.3608C901.64 81.421 911.182 91.138 924.138 91.138C937.094 91.138 946.724 81.421 946.724 59.3608C946.724 37.3006 937.094 27.496 924.138 27.496ZM924.138 84.3099C913.983 84.3099 909.344 74.5053 909.344 59.3608C909.344 44.1287 913.983 34.3242 924.138 34.3242C934.38 34.3242 939.02 44.1287 939.02 59.3608C939.02 74.5053 934.38 84.3099 924.138 84.3099ZM978.851 27.496C965.895 27.496 956.353 37.3006 956.353 59.3608C956.353 81.421 965.895 91.138 978.851 91.138C991.807 91.138 1001.44 81.421 1001.44 59.3608C1001.44 37.3006 991.807 27.496 978.851 27.496ZM978.851 84.3099C968.696 84.3099 964.057 74.5053 964.057 59.3608C964.057 44.1287 968.696 34.3242 978.851 34.3242C989.093 34.3242 993.733 44.1287 993.733 59.3608C993.733 74.5053 989.093 84.3099 978.851 84.3099ZM1011.42 90H1047.05V83.1718H1033.65V28.7216H1024.11L1011.33 37.3881V45.4418L1024.2 36.7753H1025.95V83.1718H1011.42V90ZM1077.68 27.496C1064.72 27.496 1055.18 37.3006 1055.18 59.3608C1055.18 81.421 1064.72 91.138 1077.68 91.138C1090.63 91.138 1100.26 81.421 1100.26 59.3608C1100.26 37.3006 1090.63 27.496 1077.68 27.496ZM1077.68 84.3099C1067.52 84.3099 1062.88 74.5053 1062.88 59.3608C1062.88 44.1287 1067.52 34.3242 1077.68 34.3242C1087.92 34.3242 1092.56 44.1287 1092.56 59.3608C1092.56 74.5053 1087.92 84.3099 1077.68 84.3099ZM1110.24 90H1145.87V83.1718H1132.48V28.7216H1122.93L1110.15 37.3881V45.4418L1123.02 36.7753H1124.77V83.1718H1110.24V90ZM1176.5 27.496C1163.55 27.496 1154 37.3006 1154 59.3608C1154 81.421 1163.55 91.138 1176.5 91.138C1189.46 91.138 1199.09 81.421 1199.09 59.3608C1199.09 37.3006 1189.46 27.496 1176.5 27.496ZM1176.5 84.3099C1166.35 84.3099 1161.71 74.5053 1161.71 59.3608C1161.71 44.1287 1166.35 34.3242 1176.5 34.3242C1186.74 34.3242 1191.38 44.1287 1191.38 59.3608C1191.38 74.5053 1186.74 84.3099 1176.5 84.3099ZM1209.07 90H1244.7V83.1718H1231.3V28.7216H1221.76L1208.98 37.3881V45.4418L1221.85 36.7753H1223.6V83.1718H1209.07V90ZM1275.33 27.496C1262.37 27.496 1252.83 37.3006 1252.83 59.3608C1252.83 81.421 1262.37 91.138 1275.33 91.138C1288.28 91.138 1297.91 81.421 1297.91 59.3608C1297.91 37.3006 1288.28 27.496 1275.33 27.496ZM1275.33 84.3099C1265.17 84.3099 1260.53 74.5053 1260.53 59.3608C1260.53 44.1287 1265.17 34.3242 1275.33 34.3242C1285.57 34.3242 1290.21 44.1287 1290.21 59.3608C1290.21 74.5053 1285.57 84.3099 1275.33 84.3099ZM1330.04 27.496C1317.08 27.496 1307.54 37.3006 1307.54 59.3608C1307.54 81.421 1317.08 91.138 1330.04 91.138C1343 91.138 1352.62 81.421 1352.62 59.3608C1352.62 37.3006 1343 27.496 1330.04 27.496ZM1330.04 84.3099C1319.88 84.3099 1315.24 74.5053 1315.24 59.3608C1315.24 44.1287 1319.88 34.3242 1330.04 34.3242C1340.28 34.3242 1344.92 44.1287 1344.92 59.3608C1344.92 74.5053 1340.28 84.3099 1330.04 84.3099ZM1362.6 90H1398.23V83.1718H1384.84V28.7216H1375.3L1362.52 37.3881V45.4418L1375.39 36.7753H1377.14V83.1718H1362.6V90ZM1428.86 27.496C1415.91 27.496 1406.37 37.3006 1406.37 59.3608C1406.37 81.421 1415.91 91.138 1428.86 91.138C1441.82 91.138 1451.45 81.421 1451.45 59.3608C1451.45 37.3006 1441.82 27.496 1428.86 27.496ZM1428.86 84.3099C1418.71 84.3099 1414.07 74.5053 1414.07 59.3608C1414.07 44.1287 1418.71 34.3242 1428.86 34.3242C1439.11 34.3242 1443.75 44.1287 1443.75 59.3608C1443.75 74.5053 1439.11 84.3099 1428.86 84.3099Z" fill="#274867"/>
<path d="M23.1649 183H58.7939V176.172H45.4002V121.722H35.8583L23.0774 130.388V138.442L35.9458 129.775H37.6966V176.172H23.1649V183ZM89.4249 120.496C76.4689 120.496 66.927 130.301 66.927 152.361C66.927 174.421 76.4689 184.138 89.4249 184.138C102.381 184.138 112.01 174.421 112.01 152.361C112.01 130.301 102.381 120.496 89.4249 120.496ZM89.4249 177.31C79.2702 177.31 74.6306 167.505 74.6306 152.361C74.6306 137.129 79.2702 127.324 89.4249 127.324C99.6672 127.324 104.307 137.129 104.307 152.361C104.307 167.505 99.6672 177.31 89.4249 177.31ZM144.138 120.496C131.182 120.496 121.64 130.301 121.64 152.361C121.64 174.421 131.182 184.138 144.138 184.138C157.094 184.138 166.723 174.421 166.723 152.361C166.723 130.301 157.094 120.496 144.138 120.496ZM144.138 177.31C133.983 177.31 129.343 167.505 129.343 152.361C129.343 137.129 133.983 127.324 144.138 127.324C154.38 127.324 159.02 137.129 159.02 152.361C159.02 167.505 154.38 177.31 144.138 177.31ZM176.703 183H212.332V176.172H198.938V121.722H189.396L176.615 130.388V138.442L189.484 129.775H191.235V176.172H176.703V183ZM242.963 120.496C230.007 120.496 220.465 130.301 220.465 152.361C220.465 174.421 230.007 184.138 242.963 184.138C255.919 184.138 265.548 174.421 265.548 152.361C265.548 130.301 255.919 120.496 242.963 120.496ZM242.963 177.31C232.808 177.31 228.169 167.505 228.169 152.361C228.169 137.129 232.808 127.324 242.963 127.324C253.205 127.324 257.845 137.129 257.845 152.361C257.845 167.505 253.205 177.31 242.963 177.31ZM275.528 183H311.157V176.172H297.763V121.722H288.221L275.44 130.388V138.442L288.309 129.775H290.06V176.172H275.528V183ZM341.788 120.496C328.832 120.496 319.29 130.301 319.29 152.361C319.29 174.421 328.832 184.138 341.788 184.138C354.744 184.138 364.373 174.421 364.373 152.361C364.373 130.301 354.744 120.496 341.788 120.496ZM341.788 177.31C331.633 177.31 326.994 167.505 326.994 152.361C326.994 137.129 331.633 127.324 341.788 127.324C352.03 127.324 356.67 137.129 356.67 152.361C356.67 167.505 352.03 177.31 341.788 177.31ZM396.501 120.496C383.545 120.496 374.003 130.301 374.003 152.361C374.003 174.421 383.545 184.138 396.501 184.138C409.457 184.138 419.086 174.421 419.086 152.361C419.086 130.301 409.457 120.496 396.501 120.496ZM396.501 177.31C386.346 177.31 381.707 167.505 381.707 152.361C381.707 137.129 386.346 127.324 396.501 127.324C406.743 127.324 411.383 137.129 411.383 152.361C411.383 167.505 406.743 177.31 396.501 177.31ZM429.066 183H464.695V176.172H451.301V121.722H441.759L428.978 130.388V138.442L441.847 129.775H443.598V176.172H429.066V183ZM495.326 120.496C482.37 120.496 472.828 130.301 472.828 152.361C472.828 174.421 482.37 184.138 495.326 184.138C508.282 184.138 517.911 174.421 517.911 152.361C517.911 130.301 508.282 120.496 495.326 120.496ZM495.326 177.31C485.171 177.31 480.532 167.505 480.532 152.361C480.532 137.129 485.171 127.324 495.326 127.324C505.568 127.324 510.208 137.129 510.208 152.361C510.208 167.505 505.568 177.31 495.326 177.31ZM527.891 183H563.52V176.172H550.126V121.722H540.584L527.804 130.388V138.442L540.672 129.775H542.423V176.172H527.891V183ZM594.151 120.496C581.195 120.496 571.653 130.301 571.653 152.361C571.653 174.421 581.195 184.138 594.151 184.138C607.107 184.138 616.737 174.421 616.737 152.361C616.737 130.301 607.107 120.496 594.151 120.496ZM594.151 177.31C583.996 177.31 579.357 167.505 579.357 152.361C579.357 137.129 583.996 127.324 594.151 127.324C604.393 127.324 609.033 137.129 609.033 152.361C609.033 167.505 604.393 177.31 594.151 177.31ZM626.716 183H662.345V176.172H648.952V121.722H639.41L626.629 130.388V138.442L639.497 129.775H641.248V176.172H626.716V183ZM692.976 120.496C680.02 120.496 670.478 130.301 670.478 152.361C670.478 174.421 680.02 184.138 692.976 184.138C705.932 184.138 715.562 174.421 715.562 152.361C715.562 130.301 705.932 120.496 692.976 120.496ZM692.976 177.31C682.822 177.31 678.182 167.505 678.182 152.361C678.182 137.129 682.822 127.324 692.976 127.324C703.218 127.324 707.858 137.129 707.858 152.361C707.858 167.505 703.218 177.31 692.976 177.31ZM747.689 120.496C734.733 120.496 725.191 130.301 725.191 152.361C725.191 174.421 734.733 184.138 747.689 184.138C760.645 184.138 770.275 174.421 770.275 152.361C770.275 130.301 760.645 120.496 747.689 120.496ZM747.689 177.31C737.534 177.31 732.895 167.505 732.895 152.361C732.895 137.129 737.534 127.324 747.689 127.324C757.931 127.324 762.571 137.129 762.571 152.361C762.571 167.505 757.931 177.31 747.689 177.31ZM780.254 183H815.883V176.172H802.49V121.722H792.948L780.167 130.388V138.442L793.035 129.775H794.786V176.172H780.254V183ZM846.514 120.496C833.558 120.496 824.016 130.301 824.016 152.361C824.016 174.421 833.558 184.138 846.514 184.138C859.47 184.138 869.1 174.421 869.1 152.361C869.1 130.301 859.47 120.496 846.514 120.496ZM846.514 177.31C836.359 177.31 831.72 167.505 831.72 152.361C831.72 137.129 836.359 127.324 846.514 127.324C856.756 127.324 861.396 137.129 861.396 152.361C861.396 167.505 856.756 177.31 846.514 177.31ZM901.227 120.496C888.271 120.496 878.729 130.301 878.729 152.361C878.729 174.421 888.271 184.138 901.227 184.138C914.183 184.138 923.813 174.421 923.813 152.361C923.813 130.301 914.183 120.496 901.227 120.496ZM901.227 177.31C891.072 177.31 886.433 167.505 886.433 152.361C886.433 137.129 891.072 127.324 901.227 127.324C911.469 127.324 916.109 137.129 916.109 152.361C916.109 167.505 911.469 177.31 901.227 177.31ZM933.792 183H969.421V176.172H956.028V121.722H946.486L933.705 130.388V138.442L946.573 129.775H948.324V176.172H933.792V183ZM1000.05 120.496C987.096 120.496 977.554 130.301 977.554 152.361C977.554 174.421 987.096 184.138 1000.05 184.138C1013.01 184.138 1022.64 174.421 1022.64 152.361C1022.64 130.301 1013.01 120.496 1000.05 120.496ZM1000.05 177.31C989.898 177.31 985.258 167.505 985.258 152.361C985.258 137.129 989.898 127.324 1000.05 127.324C1010.29 127.324 1014.93 137.129 1014.93 152.361C1014.93 167.505 1010.29 177.31 1000.05 177.31ZM1032.62 183H1068.25V176.172H1054.85V121.722H1045.31L1032.53 130.388V138.442L1045.4 129.775H1047.15V176.172H1032.62V183ZM1098.88 120.496C1085.92 120.496 1076.38 130.301 1076.38 152.361C1076.38 174.421 1085.92 184.138 1098.88 184.138C1111.83 184.138 1121.46 174.421 1121.46 152.361C1121.46 130.301 1111.83 120.496 1098.88 120.496ZM1098.88 177.31C1088.72 177.31 1084.08 167.505 1084.08 152.361C1084.08 137.129 1088.72 127.324 1098.88 127.324C1109.12 127.324 1113.76 137.129 1113.76 152.361C1113.76 167.505 1109.12 177.31 1098.88 177.31ZM1131.44 183H1167.07V176.172H1153.68V121.722H1144.14L1131.35 130.388V138.442L1144.22 129.775H1145.97V176.172H1131.44V183ZM1175.55 183H1211.18V176.172H1197.79V121.722H1188.25L1175.47 130.388V138.442L1188.34 129.775H1190.09V176.172H1175.55V183ZM1241.81 120.496C1228.86 120.496 1219.32 130.301 1219.32 152.361C1219.32 174.421 1228.86 184.138 1241.81 184.138C1254.77 184.138 1264.4 174.421 1264.4 152.361C1264.4 130.301 1254.77 120.496 1241.81 120.496ZM1241.81 177.31C1231.66 177.31 1227.02 167.505 1227.02 152.361C1227.02 137.129 1231.66 127.324 1241.81 127.324C1252.06 127.324 1256.7 137.129 1256.7 152.361C1256.7 167.505 1252.06 177.31 1241.81 177.31ZM1274.38 183H1310.01V176.172H1296.62V121.722H1287.07L1274.29 130.388V138.442L1287.16 129.775H1288.91V176.172H1274.38V183ZM1340.64 120.496C1327.68 120.496 1318.14 130.301 1318.14 152.361C1318.14 174.421 1327.68 184.138 1340.64 184.138C1353.6 184.138 1363.23 174.421 1363.23 152.361C1363.23 130.301 1353.6 120.496 1340.64 120.496ZM1340.64 177.31C1330.49 177.31 1325.85 167.505 1325.85 152.361C1325.85 137.129 1330.49 127.324 1340.64 127.324C1350.88 127.324 1355.52 137.129 1355.52 152.361C1355.52 167.505 1350.88 177.31 1340.64 177.31ZM1373.2 183H1408.83V176.172H1395.44V121.722H1385.9L1373.12 130.388V138.442L1385.99 129.775H1387.74V176.172H1373.2V183ZM1417.32 183H1452.95V176.172H1439.55V121.722H1430.01L1417.23 130.388V138.442L1430.1 129.775H1431.85V176.172H1417.32V183Z" fill="#274867"/>
<path d="M45.3127 213.496C32.3567 213.496 22.8147 223.301 22.8147 245.361C22.8147 267.421 32.3567 277.138 45.3127 277.138C58.2687 277.138 67.8981 267.421 67.8981 245.361C67.8981 223.301 58.2687 213.496 45.3127 213.496ZM45.3127 270.31C35.158 270.31 30.5183 260.505 30.5183 245.361C30.5183 230.129 35.158 220.324 45.3127 220.324C55.5549 220.324 60.1946 230.129 60.1946 245.361C60.1946 260.505 55.5549 270.31 45.3127 270.31ZM77.8778 276H113.507V269.172H100.113V214.722H90.5711L77.7902 223.388V231.442L90.6587 222.775H92.4095V269.172H77.8778V276ZM144.138 213.496C131.182 213.496 121.64 223.301 121.64 245.361C121.64 267.421 131.182 277.138 144.138 277.138C157.094 277.138 166.723 267.421 166.723 245.361C166.723 223.301 157.094 213.496 144.138 213.496ZM144.138 270.31C133.983 270.31 129.343 260.505 129.343 245.361C129.343 230.129 133.983 220.324 144.138 220.324C154.38 220.324 159.02 230.129 159.02 245.361C159.02 260.505 154.38 270.31 144.138 270.31ZM176.703 276H212.332V269.172H198.938V214.722H189.396L176.615 223.388V231.442L189.484 222.775H191.235V269.172H176.703V276ZM242.963 213.496C230.007 213.496 220.465 223.301 220.465 245.361C220.465 267.421 230.007 277.138 242.963 277.138C255.919 277.138 265.548 267.421 265.548 245.361C265.548 223.301 255.919 213.496 242.963 213.496ZM242.963 270.31C232.808 270.31 228.169 260.505 228.169 245.361C228.169 230.129 232.808 220.324 242.963 220.324C253.205 220.324 257.845 230.129 257.845 245.361C257.845 260.505 253.205 270.31 242.963 270.31ZM275.528 276H311.157V269.172H297.763V214.722H288.221L275.44 223.388V231.442L288.309 222.775H290.06V269.172H275.528V276ZM341.788 213.496C328.832 213.496 319.29 223.301 319.29 245.361C319.29 267.421 328.832 277.138 341.788 277.138C354.744 277.138 364.373 267.421 364.373 245.361C364.373 223.301 354.744 213.496 341.788 213.496ZM341.788 270.31C331.633 270.31 326.994 260.505 326.994 245.361C326.994 230.129 331.633 220.324 341.788 220.324C352.03 220.324 356.67 230.129 356.67 245.361C356.67 260.505 352.03 270.31 341.788 270.31ZM374.353 276H409.982V269.172H396.588V214.722H387.047L374.266 223.388V231.442L387.134 222.775H388.885V269.172H374.353V276ZM440.613 213.496C427.657 213.496 418.115 223.301 418.115 245.361C418.115 267.421 427.657 277.138 440.613 277.138C453.569 277.138 463.199 267.421 463.199 245.361C463.199 223.301 453.569 213.496 440.613 213.496ZM440.613 270.31C430.458 270.31 425.819 260.505 425.819 245.361C425.819 230.129 430.458 220.324 440.613 220.324C450.855 220.324 455.495 230.129 455.495 245.361C455.495 260.505 450.855 270.31 440.613 270.31ZM473.178 276H508.807V269.172H495.414V214.722H485.872L473.091 223.388V231.442L485.959 222.775H487.71V269.172H473.178V276ZM539.438 213.496C526.482 213.496 516.94 223.301 516.94 245.361C516.94 267.421 526.482 277.138 539.438 277.138C552.394 277.138 562.024 267.421 562.024 245.361C562.024 223.301 552.394 213.496 539.438 213.496ZM539.438 270.31C529.284 270.31 524.644 260.505 524.644 245.361C524.644 230.129 529.284 220.324 539.438 220.324C549.681 220.324 554.32 230.129 554.32 245.361C554.32 260.505 549.681 270.31 539.438 270.31ZM572.003 276H607.632V269.172H594.239V214.722H584.697L571.916 223.388V231.442L584.784 222.775H586.535V269.172H572.003V276ZM638.263 213.496C625.307 213.496 615.765 223.301 615.765 245.361C615.765 267.421 625.307 277.138 638.263 277.138C651.219 277.138 660.849 267.421 660.849 245.361C660.849 223.301 651.219 213.496 638.263 213.496ZM638.263 270.31C628.109 270.31 623.469 260.505 623.469 245.361C623.469 230.129 628.109 220.324 638.263 220.324C648.506 220.324 653.145 230.129 653.145 245.361C653.145 260.505 648.506 270.31 638.263 270.31ZM670.828 276H706.457V269.172H693.064V214.722H683.522L670.741 223.388V231.442L683.609 222.775H685.36V269.172H670.828V276ZM737.088 213.496C724.132 213.496 714.591 223.301 714.591 245.361C714.591 267.421 724.132 277.138 737.088 277.138C750.044 277.138 759.674 267.421 759.674 245.361C759.674 223.301 750.044 213.496 737.088 213.496ZM737.088 270.31C726.934 270.31 722.294 260.505 722.294 245.361C722.294 230.129 726.934 220.324 737.088 220.324C747.331 220.324 751.97 230.129 751.97 245.361C751.97 260.505 747.331 270.31 737.088 270.31ZM791.801 213.496C778.845 213.496 769.303 223.301 769.303 245.361C769.303 267.421 778.845 277.138 791.801 277.138C804.757 277.138 814.387 267.421 814.387 245.361C814.387 223.301 804.757 213.496 791.801 213.496ZM791.801 270.31C781.647 270.31 777.007 260.505 777.007 245.361C777.007 230.129 781.647 220.324 791.801 220.324C802.044 220.324 806.683 230.129 806.683 245.361C806.683 260.505 802.044 270.31 791.801 270.31ZM846.514 213.496C833.558 213.496 824.016 223.301 824.016 245.361C824.016 267.421 833.558 277.138 846.514 277.138C859.47 277.138 869.1 267.421 869.1 245.361C869.1 223.301 859.47 213.496 846.514 213.496ZM846.514 270.31C836.359 270.31 831.72 260.505 831.72 245.361C831.72 230.129 836.359 220.324 846.514 220.324C856.756 220.324 861.396 230.129 861.396 245.361C861.396 260.505 856.756 270.31 846.514 270.31ZM901.227 213.496C888.271 213.496 878.729 223.301 878.729 245.361C878.729 267.421 888.271 277.138 901.227 277.138C914.183 277.138 923.813 267.421 923.813 245.361C923.813 223.301 914.183 213.496 901.227 213.496ZM901.227 270.31C891.072 270.31 886.433 260.505 886.433 245.361C886.433 230.129 891.072 220.324 901.227 220.324C911.469 220.324 916.109 230.129 916.109 245.361C916.109 260.505 911.469 270.31 901.227 270.31ZM955.94 213.496C942.984 213.496 933.442 223.301 933.442 245.361C933.442 267.421 942.984 277.138 955.94 277.138C968.896 277.138 978.525 267.421 978.525 245.361C978.525 223.301 968.896 213.496 955.94 213.496ZM955.94 270.31C945.785 270.31 941.146 260.505 941.146 245.361C941.146 230.129 945.785 220.324 955.94 220.324C966.182 220.324 970.822 230.129 970.822 245.361C970.822 260.505 966.182 270.31 955.94 270.31ZM1010.65 213.496C997.697 213.496 988.155 223.301 988.155 245.361C988.155 267.421 997.697 277.138 1010.65 277.138C1023.61 277.138 1033.24 267.421 1033.24 245.361C1033.24 223.301 1023.61 213.496 1010.65 213.496ZM1010.65 270.31C1000.5 270.31 995.858 260.505 995.858 245.361C995.858 230.129 1000.5 220.324 1010.65 220.324C1020.9 220.324 1025.53 230.129 1025.53 245.361C1025.53 260.505 1020.9 270.31 1010.65 270.31ZM1043.22 276H1078.85V269.172H1065.45V214.722H1055.91L1043.13 223.388V231.442L1056 222.775H1057.75V269.172H1043.22V276ZM1087.33 276H1122.96V269.172H1109.57V214.722H1100.02L1087.24 223.388V231.442L1100.11 222.775H1101.86V269.172H1087.33V276ZM1131.44 276H1167.07V269.172H1153.68V214.722H1144.14L1131.35 223.388V231.442L1144.22 222.775H1145.97V269.172H1131.44V276ZM1197.7 213.496C1184.75 213.496 1175.2 223.301 1175.2 245.361C1175.2 267.421 1184.75 277.138 1197.7 277.138C1210.66 277.138 1220.29 267.421 1220.29 245.361C1220.29 223.301 1210.66 213.496 1197.7 213.496ZM1197.7 270.31C1187.55 270.31 1182.91 260.505 1182.91 245.361C1182.91 230.129 1187.55 220.324 1197.7 220.324C1207.94 220.324 1212.58 230.129 1212.58 245.361C1212.58 260.505 1207.94 270.31 1197.7 270.31ZM1230.27 276H1265.9V269.172H1252.5V214.722H1242.96L1230.18 223.388V231.442L1243.05 222.775H1244.8V269.172H1230.27V276ZM1296.53 213.496C1283.57 213.496 1274.03 223.301 1274.03 245.361C1274.03 267.421 1283.57 277.138 1296.53 277.138C1309.48 277.138 1319.11 267.421 1319.11 245.361C1319.11 223.301 1309.48 213.496 1296.53 213.496ZM1296.53 270.31C1286.37 270.31 1281.73 260.505 1281.73 245.361C1281.73 230.129 1286.37 220.324 1296.53 220.324C1306.77 220.324 1311.41 230.129 1311.41 245.361C1311.41 260.505 1306.77 270.31 1296.53 270.31ZM1329.09 276H1364.72V269.172H1351.33V214.722H1341.79L1329.01 223.388V231.442L1341.87 222.775H1343.62V269.172H1329.09V276ZM1373.2 276H1408.83V269.172H1395.44V214.722H1385.9L1373.12 223.388V231.442L1385.99 222.775H1387.74V269.172H1373.2V276ZM1417.32 276H1452.95V269.172H1439.55V214.722H1430.01L1417.23 223.388V231.442L1430.1 222.775H1431.85V269.172H1417.32V276Z" fill="#274867"/>
<path d="M23.1649 369H58.7939V362.172H45.4002V307.722H35.8583L23.0774 316.388V324.442L35.9458 315.775H37.6966V362.172H23.1649V369ZM88.9872 306.496C76.0312 306.496 66.4893 316.301 66.4893 338.361C66.4893 360.421 76.0312 370.138 88.9872 370.138C101.943 370.138 111.573 360.421 111.573 338.361C111.573 316.301 101.943 306.496 88.9872 306.496ZM88.9872 363.31C78.8325 363.31 74.1929 353.505 74.1929 338.361C74.1929 323.129 78.8325 313.324 88.9872 313.324C99.2295 313.324 103.869 323.129 103.869 338.361C103.869 353.505 99.2295 363.31 88.9872 363.31ZM121.115 369H156.744V362.172H143.35V307.722H133.808L121.027 316.388V324.442L133.896 315.775H135.646V362.172H121.115V369ZM186.937 306.496C173.981 306.496 164.439 316.301 164.439 338.361C164.439 360.421 173.981 370.138 186.937 370.138C199.893 370.138 209.522 360.421 209.522 338.361C209.522 316.301 199.893 306.496 186.937 306.496ZM186.937 363.31C176.782 363.31 172.143 353.505 172.143 338.361C172.143 323.129 176.782 313.324 186.937 313.324C197.179 313.324 201.819 323.129 201.819 338.361C201.819 353.505 197.179 363.31 186.937 363.31ZM219.064 369H254.693V362.172H241.3V307.722H231.758L218.977 316.388V324.442L231.845 315.775H233.596V362.172H219.064V369ZM262.739 369H298.368V362.172H284.974V307.722H275.432L262.651 316.388V324.442L275.52 315.775H277.271V362.172H262.739V369ZM306.413 369H342.042V362.172H328.649V307.722H319.107L306.326 316.388V324.442L319.194 315.775H320.945V362.172H306.413V369ZM350.088 369H385.717V362.172H372.323V307.722H362.781L350 316.388V324.442L362.869 315.775H364.62V362.172H350.088V369ZM393.763 369H429.392V362.172H415.998V307.722H406.456L393.675 316.388V324.442L406.543 315.775H408.294V362.172H393.763V369ZM437.437 369H473.066V362.172H459.672V307.722H450.13L437.35 316.388V324.442L450.218 315.775H451.969V362.172H437.437V369ZM503.259 306.496C490.303 306.496 480.761 316.301 480.761 338.361C480.761 360.421 490.303 370.138 503.259 370.138C516.215 370.138 525.845 360.421 525.845 338.361C525.845 316.301 516.215 306.496 503.259 306.496ZM503.259 363.31C493.105 363.31 488.465 353.505 488.465 338.361C488.465 323.129 493.105 313.324 503.259 313.324C513.502 313.324 518.141 323.129 518.141 338.361C518.141 353.505 513.502 363.31 503.259 363.31ZM535.387 369H571.016V362.172H557.622V307.722H548.08L535.299 316.388V324.442L548.168 315.775H549.918V362.172H535.387V369ZM601.209 306.496C588.253 306.496 578.711 316.301 578.711 338.361C578.711 360.421 588.253 370.138 601.209 370.138C614.165 370.138 623.795 360.421 623.795 338.361C623.795 316.301 614.165 306.496 601.209 306.496ZM601.209 363.31C591.054 363.31 586.415 353.505 586.415 338.361C586.415 323.129 591.054 313.324 601.209 313.324C611.451 313.324 616.091 323.129 616.091 338.361C616.091 353.505 611.451 363.31 601.209 363.31ZM633.336 369H668.965V362.172H655.572V307.722H646.03L633.249 316.388V324.442L646.117 315.775H647.868V362.172H633.336V369ZM699.159 306.496C686.203 306.496 676.661 316.301 676.661 338.361C676.661 360.421 686.203 370.138 699.159 370.138C712.115 370.138 721.744 360.421 721.744 338.361C721.744 316.301 712.115 306.496 699.159 306.496ZM699.159 363.31C689.004 363.31 684.364 353.505 684.364 338.361C684.364 323.129 689.004 313.324 699.159 313.324C709.401 313.324 714.041 323.129 714.041 338.361C714.041 353.505 709.401 363.31 699.159 363.31ZM753.434 306.496C740.478 306.496 730.936 316.301 730.936 338.361C730.936 360.421 740.478 370.138 753.434 370.138C766.39 370.138 776.019 360.421 776.019 338.361C776.019 316.301 766.39 306.496 753.434 306.496ZM753.434 363.31C743.279 363.31 738.64 353.505 738.64 338.361C738.64 323.129 743.279 313.324 753.434 313.324C763.676 313.324 768.316 323.129 768.316 338.361C768.316 353.505 763.676 363.31 753.434 363.31ZM785.561 369H821.19V362.172H807.797V307.722H798.255L785.474 316.388V324.442L798.342 315.775H800.093V362.172H785.561V369ZM851.384 306.496C838.428 306.496 828.886 316.301 828.886 338.361C828.886 360.421 838.428 370.138 851.384 370.138C864.34 370.138 873.969 360.421 873.969 338.361C873.969 316.301 864.34 306.496 851.384 306.496ZM851.384 363.31C841.229 363.31 836.589 353.505 836.589 338.361C836.589 323.129 841.229 313.324 851.384 313.324C861.626 313.324 866.266 323.129 866.266 338.361C866.266 353.505 861.626 363.31 851.384 363.31ZM883.511 369H919.14V362.172H905.746V307.722H896.204L883.424 316.388V324.442L896.292 315.775H898.043V362.172H883.511V369ZM949.333 306.496C936.377 306.496 926.835 316.301 926.835 338.361C926.835 360.421 936.377 370.138 949.333 370.138C962.289 370.138 971.919 360.421 971.919 338.361C971.919 316.301 962.289 306.496 949.333 306.496ZM949.333 363.31C939.179 363.31 934.539 353.505 934.539 338.361C934.539 323.129 939.179 313.324 949.333 313.324C959.576 313.324 964.215 323.129 964.215 338.361C964.215 353.505 959.576 363.31 949.333 363.31ZM981.461 369H1017.09V362.172H1003.7V307.722H994.154L981.373 316.388V324.442L994.242 315.775H995.993V362.172H981.461V369ZM1047.28 306.496C1034.33 306.496 1024.79 316.301 1024.79 338.361C1024.79 360.421 1034.33 370.138 1047.28 370.138C1060.24 370.138 1069.87 360.421 1069.87 338.361C1069.87 316.301 1060.24 306.496 1047.28 306.496ZM1047.28 363.31C1037.13 363.31 1032.49 353.505 1032.49 338.361C1032.49 323.129 1037.13 313.324 1047.28 313.324C1057.53 313.324 1062.17 323.129 1062.17 338.361C1062.17 353.505 1057.53 363.31 1047.28 363.31ZM1079.41 369H1115.04V362.172H1101.65V307.722H1092.1L1079.32 316.388V324.442L1092.19 315.775H1093.94V362.172H1079.41V369ZM1123.09 369H1158.71V362.172H1145.32V307.722H1135.78L1123 316.388V324.442L1135.87 315.775H1137.62V362.172H1123.09V369ZM1188.91 306.496C1175.95 306.496 1166.41 316.301 1166.41 338.361C1166.41 360.421 1175.95 370.138 1188.91 370.138C1201.86 370.138 1211.49 360.421 1211.49 338.361C1211.49 316.301 1201.86 306.496 1188.91 306.496ZM1188.91 363.31C1178.75 363.31 1174.11 353.505 1174.11 338.361C1174.11 323.129 1178.75 313.324 1188.91 313.324C1199.15 313.324 1203.79 323.129 1203.79 338.361C1203.79 353.505 1199.15 363.31 1188.91 363.31ZM1221.03 369H1256.66V362.172H1243.27V307.722H1233.73L1220.95 316.388V324.442L1233.82 315.775H1235.57V362.172H1221.03V369ZM1286.86 306.496C1273.9 306.496 1264.36 316.301 1264.36 338.361C1264.36 360.421 1273.9 370.138 1286.86 370.138C1299.81 370.138 1309.44 360.421 1309.44 338.361C1309.44 316.301 1299.81 306.496 1286.86 306.496ZM1286.86 363.31C1276.7 363.31 1272.06 353.505 1272.06 338.361C1272.06 323.129 1276.7 313.324 1286.86 313.324C1297.1 313.324 1301.74 323.129 1301.74 338.361C1301.74 353.505 1297.1 363.31 1286.86 363.31ZM1318.98 369H1354.61V362.172H1341.22V307.722H1331.68L1318.9 316.388V324.442L1331.77 315.775H1333.52V362.172H1318.98V369ZM1384.81 306.496C1371.85 306.496 1362.31 316.301 1362.31 338.361C1362.31 360.421 1371.85 370.138 1384.81 370.138C1397.76 370.138 1407.39 360.421 1407.39 338.361C1407.39 316.301 1397.76 306.496 1384.81 306.496ZM1384.81 363.31C1374.65 363.31 1370.01 353.505 1370.01 338.361C1370.01 323.129 1374.65 313.324 1384.81 313.324C1395.05 313.324 1399.69 323.129 1399.69 338.361C1399.69 353.505 1395.05 363.31 1384.81 363.31ZM1416.93 369H1452.56V362.172H1439.17V307.722H1429.63L1416.85 316.388V324.442L1429.72 315.775H1431.47V362.172H1416.93V369Z" fill="#274867"/>
<path d="M23.1649 462H58.7939V455.172H45.4002V400.722H35.8583L23.0774 409.388V417.442L35.9458 408.775H37.6966V455.172H23.1649V462ZM67.2771 462H102.906V455.172H89.5125V400.722H79.9705L67.1896 409.388V417.442L80.0581 408.775H81.8089V455.172H67.2771V462ZM133.537 399.496C120.581 399.496 111.039 409.301 111.039 431.361C111.039 453.421 120.581 463.138 133.537 463.138C146.493 463.138 156.123 453.421 156.123 431.361C156.123 409.301 146.493 399.496 133.537 399.496ZM133.537 456.31C123.382 456.31 118.743 446.505 118.743 431.361C118.743 416.129 123.382 406.324 133.537 406.324C143.779 406.324 148.419 416.129 148.419 431.361C148.419 446.505 143.779 456.31 133.537 456.31ZM166.102 462H201.731V455.172H188.338V400.722H178.796L166.015 409.388V417.442L178.883 408.775H180.634V455.172H166.102V462ZM210.215 462H245.844V455.172H232.45V400.722H222.908L210.127 409.388V417.442L222.995 408.775H224.746V455.172H210.215V462ZM276.475 399.496C263.519 399.496 253.977 409.301 253.977 431.361C253.977 453.421 263.519 463.138 276.475 463.138C289.431 463.138 299.06 453.421 299.06 431.361C299.06 409.301 289.431 399.496 276.475 399.496ZM276.475 456.31C266.32 456.31 261.68 446.505 261.68 431.361C261.68 416.129 266.32 406.324 276.475 406.324C286.717 406.324 291.356 416.129 291.356 431.361C291.356 446.505 286.717 456.31 276.475 456.31ZM572.95 399.496C559.994 399.496 550.452 409.301 550.452 431.361C550.452 453.421 559.994 463.138 572.95 463.138C585.906 463.138 595.535 453.421 595.535 431.361C595.535 409.301 585.906 399.496 572.95 399.496ZM572.95 456.31C562.795 456.31 558.156 446.505 558.156 431.361C558.156 416.129 562.795 406.324 572.95 406.324C583.192 406.324 587.832 416.129 587.832 431.361C587.832 446.505 583.192 456.31 572.95 456.31ZM605.515 462H641.144V455.172H627.75V400.722H618.208L605.427 409.388V417.442L618.296 408.775H620.047V455.172H605.515V462ZM671.775 399.496C658.819 399.496 649.277 409.301 649.277 431.361C649.277 453.421 658.819 463.138 671.775 463.138C684.731 463.138 694.36 453.421 694.36 431.361C694.36 409.301 684.731 399.496 671.775 399.496ZM671.775 456.31C661.62 456.31 656.981 446.505 656.981 431.361C656.981 416.129 661.62 406.324 671.775 406.324C682.017 406.324 686.657 416.129 686.657 431.361C686.657 446.505 682.017 456.31 671.775 456.31ZM726.488 399.496C713.532 399.496 703.99 409.301 703.99 431.361C703.99 453.421 713.532 463.138 726.488 463.138C739.444 463.138 749.073 453.421 749.073 431.361C749.073 409.301 739.444 399.496 726.488 399.496ZM726.488 456.31C716.333 456.31 711.694 446.505 711.694 431.361C711.694 416.129 716.333 406.324 726.488 406.324C736.73 406.324 741.37 416.129 741.37 431.361C741.37 446.505 736.73 456.31 726.488 456.31ZM759.053 462H794.682V455.172H781.288V400.722H771.746L758.965 409.388V417.442L771.834 408.775H773.585V455.172H759.053V462ZM825.313 399.496C812.357 399.496 802.815 409.301 802.815 431.361C802.815 453.421 812.357 463.138 825.313 463.138C838.269 463.138 847.899 453.421 847.899 431.361C847.899 409.301 838.269 399.496 825.313 399.496ZM825.313 456.31C815.158 456.31 810.519 446.505 810.519 431.361C810.519 416.129 815.158 406.324 825.313 406.324C835.555 406.324 840.195 416.129 840.195 431.361C840.195 446.505 835.555 456.31 825.313 456.31ZM857.878 462H893.507V455.172H880.113V400.722H870.571L857.791 409.388V417.442L870.659 408.775H872.41V455.172H857.878V462ZM924.138 399.496C911.182 399.496 901.64 409.301 901.64 431.361C901.64 453.421 911.182 463.138 924.138 463.138C937.094 463.138 946.724 453.421 946.724 431.361C946.724 409.301 937.094 399.496 924.138 399.496ZM924.138 456.31C913.983 456.31 909.344 446.505 909.344 431.361C909.344 416.129 913.983 406.324 924.138 406.324C934.38 406.324 939.02 416.129 939.02 431.361C939.02 446.505 934.38 456.31 924.138 456.31ZM978.851 399.496C965.895 399.496 956.353 409.301 956.353 431.361C956.353 453.421 965.895 463.138 978.851 463.138C991.807 463.138 1001.44 453.421 1001.44 431.361C1001.44 409.301 991.807 399.496 978.851 399.496ZM978.851 456.31C968.696 456.31 964.057 446.505 964.057 431.361C964.057 416.129 968.696 406.324 978.851 406.324C989.093 406.324 993.733 416.129 993.733 431.361C993.733 446.505 989.093 456.31 978.851 456.31ZM1011.42 462H1047.05V455.172H1033.65V400.722H1024.11L1011.33 409.388V417.442L1024.2 408.775H1025.95V455.172H1011.42V462ZM1077.68 399.496C1064.72 399.496 1055.18 409.301 1055.18 431.361C1055.18 453.421 1064.72 463.138 1077.68 463.138C1090.63 463.138 1100.26 453.421 1100.26 431.361C1100.26 409.301 1090.63 399.496 1077.68 399.496ZM1077.68 456.31C1067.52 456.31 1062.88 446.505 1062.88 431.361C1062.88 416.129 1067.52 406.324 1077.68 406.324C1087.92 406.324 1092.56 416.129 1092.56 431.361C1092.56 446.505 1087.92 456.31 1077.68 456.31ZM1110.24 462H1145.87V455.172H1132.48V400.722H1122.93L1110.15 409.388V417.442L1123.02 408.775H1124.77V455.172H1110.24V462ZM1176.5 399.496C1163.55 399.496 1154 409.301 1154 431.361C1154 453.421 1163.55 463.138 1176.5 463.138C1189.46 463.138 1199.09 453.421 1199.09 431.361C1199.09 409.301 1189.46 399.496 1176.5 399.496ZM1176.5 456.31C1166.35 456.31 1161.71 446.505 1161.71 431.361C1161.71 416.129 1166.35 406.324 1176.5 406.324C1186.74 406.324 1191.38 416.129 1191.38 431.361C1191.38 446.505 1186.74 456.31 1176.5 456.31ZM1209.07 462H1244.7V455.172H1231.3V400.722H1221.76L1208.98 409.388V417.442L1221.85 408.775H1223.6V455.172H1209.07V462ZM1275.33 399.496C1262.37 399.496 1252.83 409.301 1252.83 431.361C1252.83 453.421 1262.37 463.138 1275.33 463.138C1288.28 463.138 1297.91 453.421 1297.91 431.361C1297.91 409.301 1288.28 399.496 1275.33 399.496ZM1275.33 456.31C1265.17 456.31 1260.53 446.505 1260.53 431.361C1260.53 416.129 1265.17 406.324 1275.33 406.324C1285.57 406.324 1290.21 416.129 1290.21 431.361C1290.21 446.505 1285.57 456.31 1275.33 456.31ZM1330.04 399.496C1317.08 399.496 1307.54 409.301 1307.54 431.361C1307.54 453.421 1317.08 463.138 1330.04 463.138C1343 463.138 1352.62 453.421 1352.62 431.361C1352.62 409.301 1343 399.496 1330.04 399.496ZM1330.04 456.31C1319.88 456.31 1315.24 446.505 1315.24 431.361C1315.24 416.129 1319.88 406.324 1330.04 406.324C1340.28 406.324 1344.92 416.129 1344.92 431.361C1344.92 446.505 1340.28 456.31 1330.04 456.31ZM1362.6 462H1398.23V455.172H1384.84V400.722H1375.3L1362.52 409.388V417.442L1375.39 408.775H1377.14V455.172H1362.6V462ZM1428.86 399.496C1415.91 399.496 1406.37 409.301 1406.37 431.361C1406.37 453.421 1415.91 463.138 1428.86 463.138C1441.82 463.138 1451.45 453.421 1451.45 431.361C1451.45 409.301 1441.82 399.496 1428.86 399.496ZM1428.86 456.31C1418.71 456.31 1414.07 446.505 1414.07 431.361C1414.07 416.129 1418.71 406.324 1428.86 406.324C1439.11 406.324 1443.75 416.129 1443.75 431.361C1443.75 446.505 1439.11 456.31 1428.86 456.31Z" fill="#274867"/>
<path d="M309.04 462H344.669V455.172H331.275V400.722H321.733L308.952 409.388V417.442L321.821 408.775H323.571V455.172H309.04V462ZM375.3 399.496C362.344 399.496 352.802 409.301 352.802 431.361C352.802 453.421 362.344 463.138 375.3 463.138C388.256 463.138 397.885 453.421 397.885 431.361C397.885 409.301 388.256 399.496 375.3 399.496ZM375.3 456.31C365.145 456.31 360.505 446.505 360.505 431.361C360.505 416.129 365.145 406.324 375.3 406.324C385.542 406.324 390.182 416.129 390.182 431.361C390.182 446.505 385.542 456.31 375.3 456.31ZM407.865 462H443.494V455.172H430.1V400.722H420.558L407.777 409.388V417.442L420.646 408.775H422.396V455.172H407.865V462ZM474.125 399.496C461.169 399.496 451.627 409.301 451.627 431.361C451.627 453.421 461.169 463.138 474.125 463.138C487.081 463.138 496.71 453.421 496.71 431.361C496.71 409.301 487.081 399.496 474.125 399.496ZM474.125 456.31C463.97 456.31 459.33 446.505 459.33 431.361C459.33 416.129 463.97 406.324 474.125 406.324C484.367 406.324 489.007 416.129 489.007 431.361C489.007 446.505 484.367 456.31 474.125 456.31ZM506.69 462H542.319V455.172H528.925V400.722H519.383L506.602 409.388V417.442L519.471 408.775H521.222V455.172H506.69V462Z" fill="#FF0000"/>
<path d="M23.1649 555H58.7939V548.172H45.4002V493.722H35.8583L23.0774 502.388V510.442L35.9458 501.775H37.6966V548.172H23.1649V555ZM89.4249 492.496C76.4689 492.496 66.927 502.301 66.927 524.361C66.927 546.421 76.4689 556.138 89.4249 556.138C102.381 556.138 112.01 546.421 112.01 524.361C112.01 502.301 102.381 492.496 89.4249 492.496ZM89.4249 549.31C79.2702 549.31 74.6306 539.505 74.6306 524.361C74.6306 509.129 79.2702 499.324 89.4249 499.324C99.6672 499.324 104.307 509.129 104.307 524.361C104.307 539.505 99.6672 549.31 89.4249 549.31ZM144.138 492.496C131.182 492.496 121.64 502.301 121.64 524.361C121.64 546.421 131.182 556.138 144.138 556.138C157.094 556.138 166.723 546.421 166.723 524.361C166.723 502.301 157.094 492.496 144.138 492.496ZM144.138 549.31C133.983 549.31 129.343 539.505 129.343 524.361C129.343 509.129 133.983 499.324 144.138 499.324C154.38 499.324 159.02 509.129 159.02 524.361C159.02 539.505 154.38 549.31 144.138 549.31ZM176.703 555H212.332V548.172H198.938V493.722H189.396L176.615 502.388V510.442L189.484 501.775H191.235V548.172H176.703V555ZM242.963 492.496C230.007 492.496 220.465 502.301 220.465 524.361C220.465 546.421 230.007 556.138 242.963 556.138C255.919 556.138 265.548 546.421 265.548 524.361C265.548 502.301 255.919 492.496 242.963 492.496ZM242.963 549.31C232.808 549.31 228.169 539.505 228.169 524.361C228.169 509.129 232.808 499.324 242.963 499.324C253.205 499.324 257.845 509.129 257.845 524.361C257.845 539.505 253.205 549.31 242.963 549.31ZM275.528 555H311.157V548.172H297.763V493.722H288.221L275.44 502.388V510.442L288.309 501.775H290.06V548.172H275.528V555ZM341.788 492.496C328.832 492.496 319.29 502.301 319.29 524.361C319.29 546.421 328.832 556.138 341.788 556.138C354.744 556.138 364.373 546.421 364.373 524.361C364.373 502.301 354.744 492.496 341.788 492.496ZM341.788 549.31C331.633 549.31 326.994 539.505 326.994 524.361C326.994 509.129 331.633 499.324 341.788 499.324C352.03 499.324 356.67 509.129 356.67 524.361C356.67 539.505 352.03 549.31 341.788 549.31ZM396.501 492.496C383.545 492.496 374.003 502.301 374.003 524.361C374.003 546.421 383.545 556.138 396.501 556.138C409.457 556.138 419.086 546.421 419.086 524.361C419.086 502.301 409.457 492.496 396.501 492.496ZM396.501 549.31C386.346 549.31 381.707 539.505 381.707 524.361C381.707 509.129 386.346 499.324 396.501 499.324C406.743 499.324 411.383 509.129 411.383 524.361C411.383 539.505 406.743 549.31 396.501 549.31ZM429.066 555H464.695V548.172H451.301V493.722H441.759L428.978 502.388V510.442L441.847 501.775H443.598V548.172H429.066V555ZM495.326 492.496C482.37 492.496 472.828 502.301 472.828 524.361C472.828 546.421 482.37 556.138 495.326 556.138C508.282 556.138 517.911 546.421 517.911 524.361C517.911 502.301 508.282 492.496 495.326 492.496ZM495.326 549.31C485.171 549.31 480.532 539.505 480.532 524.361C480.532 509.129 485.171 499.324 495.326 499.324C505.568 499.324 510.208 509.129 510.208 524.361C510.208 539.505 505.568 549.31 495.326 549.31ZM527.891 555H563.52V548.172H550.126V493.722H540.584L527.804 502.388V510.442L540.672 501.775H542.423V548.172H527.891V555ZM594.151 492.496C581.195 492.496 571.653 502.301 571.653 524.361C571.653 546.421 581.195 556.138 594.151 556.138C607.107 556.138 616.737 546.421 616.737 524.361C616.737 502.301 607.107 492.496 594.151 492.496ZM594.151 549.31C583.996 549.31 579.357 539.505 579.357 524.361C579.357 509.129 583.996 499.324 594.151 499.324C604.393 499.324 609.033 509.129 609.033 524.361C609.033 539.505 604.393 549.31 594.151 549.31ZM626.716 555H662.345V548.172H648.952V493.722H639.41L626.629 502.388V510.442L639.497 501.775H641.248V548.172H626.716V555ZM692.976 492.496C680.02 492.496 670.478 502.301 670.478 524.361C670.478 546.421 680.02 556.138 692.976 556.138C705.932 556.138 715.562 546.421 715.562 524.361C715.562 502.301 705.932 492.496 692.976 492.496ZM692.976 549.31C682.822 549.31 678.182 539.505 678.182 524.361C678.182 509.129 682.822 499.324 692.976 499.324C703.218 499.324 707.858 509.129 707.858 524.361C707.858 539.505 703.218 549.31 692.976 549.31ZM747.689 492.496C734.733 492.496 725.191 502.301 725.191 524.361C725.191 546.421 734.733 556.138 747.689 556.138C760.645 556.138 770.275 546.421 770.275 524.361C770.275 502.301 760.645 492.496 747.689 492.496ZM747.689 549.31C737.534 549.31 732.895 539.505 732.895 524.361C732.895 509.129 737.534 499.324 747.689 499.324C757.931 499.324 762.571 509.129 762.571 524.361C762.571 539.505 757.931 549.31 747.689 549.31ZM780.254 555H815.883V548.172H802.49V493.722H792.948L780.167 502.388V510.442L793.035 501.775H794.786V548.172H780.254V555ZM846.514 492.496C833.558 492.496 824.016 502.301 824.016 524.361C824.016 546.421 833.558 556.138 846.514 556.138C859.47 556.138 869.1 546.421 869.1 524.361C869.1 502.301 859.47 492.496 846.514 492.496ZM846.514 549.31C836.359 549.31 831.72 539.505 831.72 524.361C831.72 509.129 836.359 499.324 846.514 499.324C856.756 499.324 861.396 509.129 861.396 524.361C861.396 539.505 856.756 549.31 846.514 549.31ZM901.227 492.496C888.271 492.496 878.729 502.301 878.729 524.361C878.729 546.421 888.271 556.138 901.227 556.138C914.183 556.138 923.813 546.421 923.813 524.361C923.813 502.301 914.183 492.496 901.227 492.496ZM901.227 549.31C891.072 549.31 886.433 539.505 886.433 524.361C886.433 509.129 891.072 499.324 901.227 499.324C911.469 499.324 916.109 509.129 916.109 524.361C916.109 539.505 911.469 549.31 901.227 549.31ZM933.792 555H969.421V548.172H956.028V493.722H946.486L933.705 502.388V510.442L946.573 501.775H948.324V548.172H933.792V555ZM1000.05 492.496C987.096 492.496 977.554 502.301 977.554 524.361C977.554 546.421 987.096 556.138 1000.05 556.138C1013.01 556.138 1022.64 546.421 1022.64 524.361C1022.64 502.301 1013.01 492.496 1000.05 492.496ZM1000.05 549.31C989.898 549.31 985.258 539.505 985.258 524.361C985.258 509.129 989.898 499.324 1000.05 499.324C1010.29 499.324 1014.93 509.129 1014.93 524.361C1014.93 539.505 1010.29 549.31 1000.05 549.31ZM1032.62 555H1068.25V548.172H1054.85V493.722H1045.31L1032.53 502.388V510.442L1045.4 501.775H1047.15V548.172H1032.62V555ZM1098.88 492.496C1085.92 492.496 1076.38 502.301 1076.38 524.361C1076.38 546.421 1085.92 556.138 1098.88 556.138C1111.83 556.138 1121.46 546.421 1121.46 524.361C1121.46 502.301 1111.83 492.496 1098.88 492.496ZM1098.88 549.31C1088.72 549.31 1084.08 539.505 1084.08 524.361C1084.08 509.129 1088.72 499.324 1098.88 499.324C1109.12 499.324 1113.76 509.129 1113.76 524.361C1113.76 539.505 1109.12 549.31 1098.88 549.31ZM1131.44 555H1167.07V548.172H1153.68V493.722H1144.14L1131.35 502.388V510.442L1144.22 501.775H1145.97V548.172H1131.44V555ZM1197.7 492.496C1184.75 492.496 1175.2 502.301 1175.2 524.361C1175.2 546.421 1184.75 556.138 1197.7 556.138C1210.66 556.138 1220.29 546.421 1220.29 524.361C1220.29 502.301 1210.66 492.496 1197.7 492.496ZM1197.7 549.31C1187.55 549.31 1182.91 539.505 1182.91 524.361C1182.91 509.129 1187.55 499.324 1197.7 499.324C1207.94 499.324 1212.58 509.129 1212.58 524.361C1212.58 539.505 1207.94 549.31 1197.7 549.31ZM1230.27 555H1265.9V548.172H1252.5V493.722H1242.96L1230.18 502.388V510.442L1243.05 501.775H1244.8V548.172H1230.27V555ZM1274.38 555H1310.01V548.172H1296.62V493.722H1287.07L1274.29 502.388V510.442L1287.16 501.775H1288.91V548.172H1274.38V555ZM1340.64 492.496C1327.68 492.496 1318.14 502.301 1318.14 524.361C1318.14 546.421 1327.68 556.138 1340.64 556.138C1353.6 556.138 1363.23 546.421 1363.23 524.361C1363.23 502.301 1353.6 492.496 1340.64 492.496ZM1340.64 549.31C1330.49 549.31 1325.85 539.505 1325.85 524.361C1325.85 509.129 1330.49 499.324 1340.64 499.324C1350.88 499.324 1355.52 509.129 1355.52 524.361C1355.52 539.505 1350.88 549.31 1340.64 549.31ZM1373.2 555H1408.83V548.172H1395.44V493.722H1385.9L1373.12 502.388V510.442L1385.99 501.775H1387.74V548.172H1373.2V555ZM1417.32 555H1452.95V548.172H1439.55V493.722H1430.01L1417.23 502.388V510.442L1430.1 501.775H1431.85V548.172H1417.32V555Z" fill="#274867"/>
<path d="M45.3127 585.496C32.3567 585.496 22.8147 595.301 22.8147 617.361C22.8147 639.421 32.3567 649.138 45.3127 649.138C58.2687 649.138 67.8981 639.421 67.8981 617.361C67.8981 595.301 58.2687 585.496 45.3127 585.496ZM45.3127 642.31C35.158 642.31 30.5183 632.505 30.5183 617.361C30.5183 602.129 35.158 592.324 45.3127 592.324C55.5549 592.324 60.1946 602.129 60.1946 617.361C60.1946 632.505 55.5549 642.31 45.3127 642.31ZM77.4401 648H113.069V641.172H99.6754V586.722H90.1334L77.3525 595.388V603.442L90.221 594.775H91.9718V641.172H77.4401V648ZM143.262 585.496C130.306 585.496 120.764 595.301 120.764 617.361C120.764 639.421 130.306 649.138 143.262 649.138C156.218 649.138 165.848 639.421 165.848 617.361C165.848 595.301 156.218 585.496 143.262 585.496ZM143.262 642.31C133.108 642.31 128.468 632.505 128.468 617.361C128.468 602.129 133.108 592.324 143.262 592.324C153.505 592.324 158.144 602.129 158.144 617.361C158.144 632.505 153.505 642.31 143.262 642.31ZM175.39 648H211.019V641.172H197.625V586.722H188.083L175.302 595.388V603.442L188.171 594.775H189.922V641.172H175.39V648ZM241.212 585.496C228.256 585.496 218.714 595.301 218.714 617.361C218.714 639.421 228.256 649.138 241.212 649.138C254.168 649.138 263.798 639.421 263.798 617.361C263.798 595.301 254.168 585.496 241.212 585.496ZM241.212 642.31C231.057 642.31 226.418 632.505 226.418 617.361C226.418 602.129 231.057 592.324 241.212 592.324C251.454 592.324 256.094 602.129 256.094 617.361C256.094 632.505 251.454 642.31 241.212 642.31ZM273.339 648H308.969V641.172H295.575V586.722H286.033L273.252 595.388V603.442L286.12 594.775H287.871V641.172H273.339V648ZM339.162 585.496C326.206 585.496 316.664 595.301 316.664 617.361C316.664 639.421 326.206 649.138 339.162 649.138C352.118 649.138 361.747 639.421 361.747 617.361C361.747 595.301 352.118 585.496 339.162 585.496ZM339.162 642.31C329.007 642.31 324.367 632.505 324.367 617.361C324.367 602.129 329.007 592.324 339.162 592.324C349.404 592.324 354.044 602.129 354.044 617.361C354.044 632.505 349.404 642.31 339.162 642.31ZM371.289 648H406.918V641.172H393.525V586.722H383.983L371.202 595.388V603.442L384.07 594.775H385.821V641.172H371.289V648ZM437.112 585.496C424.156 585.496 414.614 595.301 414.614 617.361C414.614 639.421 424.156 649.138 437.112 649.138C450.068 649.138 459.697 639.421 459.697 617.361C459.697 595.301 450.068 585.496 437.112 585.496ZM437.112 642.31C426.957 642.31 422.317 632.505 422.317 617.361C422.317 602.129 426.957 592.324 437.112 592.324C447.354 592.324 451.993 602.129 451.993 617.361C451.993 632.505 447.354 642.31 437.112 642.31ZM469.239 648H504.868V641.172H491.474V586.722H481.932L469.151 595.388V603.442L482.02 594.775H483.771V641.172H469.239V648ZM535.061 585.496C522.105 585.496 512.563 595.301 512.563 617.361C512.563 639.421 522.105 649.138 535.061 649.138C548.017 649.138 557.647 639.421 557.647 617.361C557.647 595.301 548.017 585.496 535.061 585.496ZM535.061 642.31C524.907 642.31 520.267 632.505 520.267 617.361C520.267 602.129 524.907 592.324 535.061 592.324C545.303 592.324 549.943 602.129 549.943 617.361C549.943 632.505 545.303 642.31 535.061 642.31ZM567.189 648H602.818V641.172H589.424V586.722H579.882L567.101 595.388V603.442L579.97 594.775H581.72V641.172H567.189V648ZM633.011 585.496C620.055 585.496 610.513 595.301 610.513 617.361C610.513 639.421 620.055 649.138 633.011 649.138C645.967 649.138 655.596 639.421 655.596 617.361C655.596 595.301 645.967 585.496 633.011 585.496ZM633.011 642.31C622.856 642.31 618.217 632.505 618.217 617.361C618.217 602.129 622.856 592.324 633.011 592.324C643.253 592.324 647.893 602.129 647.893 617.361C647.893 632.505 643.253 642.31 633.011 642.31ZM665.138 648H700.767V641.172H687.374V586.722H677.832L665.051 595.388V603.442L677.919 594.775H679.67V641.172H665.138V648ZM730.961 585.496C718.005 585.496 708.463 595.301 708.463 617.361C708.463 639.421 718.005 649.138 730.961 649.138C743.917 649.138 753.546 639.421 753.546 617.361C753.546 595.301 743.917 585.496 730.961 585.496ZM730.961 642.31C720.806 642.31 716.166 632.505 716.166 617.361C716.166 602.129 720.806 592.324 730.961 592.324C741.203 592.324 745.843 602.129 745.843 617.361C745.843 632.505 741.203 642.31 730.961 642.31ZM763.088 648H798.717V641.172H785.323V586.722H775.781L763.001 595.388V603.442L775.869 594.775H777.62V641.172H763.088V648ZM828.91 585.496C815.954 585.496 806.412 595.301 806.412 617.361C806.412 639.421 815.954 649.138 828.91 649.138C841.866 649.138 851.496 639.421 851.496 617.361C851.496 595.301 841.866 585.496 828.91 585.496ZM828.91 642.31C818.756 642.31 814.116 632.505 814.116 617.361C814.116 602.129 818.756 592.324 828.91 592.324C839.153 592.324 843.792 602.129 843.792 617.361C843.792 632.505 839.153 642.31 828.91 642.31ZM883.186 585.496C870.23 585.496 860.688 595.301 860.688 617.361C860.688 639.421 870.23 649.138 883.186 649.138C896.142 649.138 905.771 639.421 905.771 617.361C905.771 595.301 896.142 585.496 883.186 585.496ZM883.186 642.31C873.031 642.31 868.391 632.505 868.391 617.361C868.391 602.129 873.031 592.324 883.186 592.324C893.428 592.324 898.067 602.129 898.067 617.361C898.067 632.505 893.428 642.31 883.186 642.31ZM937.461 585.496C924.505 585.496 914.963 595.301 914.963 617.361C914.963 639.421 924.505 649.138 937.461 649.138C950.417 649.138 960.046 639.421 960.046 617.361C960.046 595.301 950.417 585.496 937.461 585.496ZM937.461 642.31C927.306 642.31 922.666 632.505 922.666 617.361C922.666 602.129 927.306 592.324 937.461 592.324C947.703 592.324 952.343 602.129 952.343 617.361C952.343 632.505 947.703 642.31 937.461 642.31ZM991.736 585.496C978.78 585.496 969.238 595.301 969.238 617.361C969.238 639.421 978.78 649.138 991.736 649.138C1004.69 649.138 1014.32 639.421 1014.32 617.361C1014.32 595.301 1004.69 585.496 991.736 585.496ZM991.736 642.31C981.581 642.31 976.942 632.505 976.942 617.361C976.942 602.129 981.581 592.324 991.736 592.324C1001.98 592.324 1006.62 602.129 1006.62 617.361C1006.62 632.505 1001.98 642.31 991.736 642.31ZM1046.01 585.496C1033.06 585.496 1023.51 595.301 1023.51 617.361C1023.51 639.421 1033.06 649.138 1046.01 649.138C1058.97 649.138 1068.6 639.421 1068.6 617.361C1068.6 595.301 1058.97 585.496 1046.01 585.496ZM1046.01 642.31C1035.86 642.31 1031.22 632.505 1031.22 617.361C1031.22 602.129 1035.86 592.324 1046.01 592.324C1056.25 592.324 1060.89 602.129 1060.89 617.361C1060.89 632.505 1056.25 642.31 1046.01 642.31ZM1100.29 585.496C1087.33 585.496 1077.79 595.301 1077.79 617.361C1077.79 639.421 1087.33 649.138 1100.29 649.138C1113.24 649.138 1122.87 639.421 1122.87 617.361C1122.87 595.301 1113.24 585.496 1100.29 585.496ZM1100.29 642.31C1090.13 642.31 1085.49 632.505 1085.49 617.361C1085.49 602.129 1090.13 592.324 1100.29 592.324C1110.53 592.324 1115.17 602.129 1115.17 617.361C1115.17 632.505 1110.53 642.31 1100.29 642.31ZM1132.41 648H1168.04V641.172H1154.65V586.722H1145.11L1132.33 595.388V603.442L1145.19 594.775H1146.95V641.172H1132.41V648ZM1198.24 585.496C1185.28 585.496 1175.74 595.301 1175.74 617.361C1175.74 639.421 1185.28 649.138 1198.24 649.138C1211.19 649.138 1220.82 639.421 1220.82 617.361C1220.82 595.301 1211.19 585.496 1198.24 585.496ZM1198.24 642.31C1188.08 642.31 1183.44 632.505 1183.44 617.361C1183.44 602.129 1188.08 592.324 1198.24 592.324C1208.48 592.324 1213.12 602.129 1213.12 617.361C1213.12 632.505 1208.48 642.31 1198.24 642.31ZM1230.36 648H1265.99V641.172H1252.6V586.722H1243.06L1230.28 595.388V603.442L1243.14 594.775H1244.89V641.172H1230.36V648ZM1296.19 585.496C1283.23 585.496 1273.69 595.301 1273.69 617.361C1273.69 639.421 1283.23 649.138 1296.19 649.138C1309.14 649.138 1318.77 639.421 1318.77 617.361C1318.77 595.301 1309.14 585.496 1296.19 585.496ZM1296.19 642.31C1286.03 642.31 1281.39 632.505 1281.39 617.361C1281.39 602.129 1286.03 592.324 1296.19 592.324C1306.43 592.324 1311.07 602.129 1311.07 617.361C1311.07 632.505 1306.43 642.31 1296.19 642.31ZM1328.31 648H1363.94V641.172H1350.55V586.722H1341.01L1328.23 595.388V603.442L1341.09 594.775H1342.84V641.172H1328.31V648ZM1371.99 648H1407.62V641.172H1394.22V586.722H1384.68L1371.9 595.388V603.442L1384.77 594.775H1386.52V641.172H1371.99V648ZM1415.66 648H1451.29V641.172H1437.9V586.722H1428.36L1415.57 595.388V603.442L1428.44 594.775H1430.19V641.172H1415.66V648Z" fill="#274867"/>
<path d="M23.1649 741H58.7939V734.172H45.4002V679.722H35.8583L23.0774 688.388V696.442L35.9458 687.775H37.6966V734.172H23.1649V741ZM89.8626 678.496C76.9066 678.496 67.3647 688.301 67.3647 710.361C67.3647 732.421 76.9066 742.138 89.8626 742.138C102.819 742.138 112.448 732.421 112.448 710.361C112.448 688.301 102.819 678.496 89.8626 678.496ZM89.8626 735.31C79.7079 735.31 75.0683 725.505 75.0683 710.361C75.0683 695.129 79.7079 685.324 89.8626 685.324C100.105 685.324 104.745 695.129 104.745 710.361C104.745 725.505 100.105 735.31 89.8626 735.31ZM122.865 741H158.494V734.172H145.101V679.722H135.559L122.778 688.388V696.442L135.646 687.775H137.397V734.172H122.865V741ZM189.563 678.496C176.607 678.496 167.065 688.301 167.065 710.361C167.065 732.421 176.607 742.138 189.563 742.138C202.519 742.138 212.149 732.421 212.149 710.361C212.149 688.301 202.519 678.496 189.563 678.496ZM189.563 735.31C179.408 735.31 174.769 725.505 174.769 710.361C174.769 695.129 179.408 685.324 189.563 685.324C199.805 685.324 204.445 695.129 204.445 710.361C204.445 725.505 199.805 735.31 189.563 735.31ZM222.566 741H258.195V734.172H244.801V679.722H235.259L222.478 688.388V696.442L235.347 687.775H237.098V734.172H222.566V741ZM289.264 678.496C276.308 678.496 266.766 688.301 266.766 710.361C266.766 732.421 276.308 742.138 289.264 742.138C302.22 742.138 311.849 732.421 311.849 710.361C311.849 688.301 302.22 678.496 289.264 678.496ZM289.264 735.31C279.109 735.31 274.469 725.505 274.469 710.361C274.469 695.129 279.109 685.324 289.264 685.324C299.506 685.324 304.146 695.129 304.146 710.361C304.146 725.505 299.506 735.31 289.264 735.31ZM322.266 741H357.895V734.172H344.502V679.722H334.96L322.179 688.388V696.442L335.047 687.775H336.798V734.172H322.266V741ZM366.816 741H402.445V734.172H389.052V679.722H379.51L366.729 688.388V696.442L379.597 687.775H381.348V734.172H366.816V741ZM411.366 741H446.995V734.172H433.602V679.722H424.06L411.279 688.388V696.442L424.147 687.775H425.898V734.172H411.366V741ZM455.916 741H491.545V734.172H478.152V679.722H468.61L455.829 688.388V696.442L468.697 687.775H470.448V734.172H455.916V741ZM522.614 678.496C509.658 678.496 500.116 688.301 500.116 710.361C500.116 732.421 509.658 742.138 522.614 742.138C535.57 742.138 545.2 732.421 545.2 710.361C545.2 688.301 535.57 678.496 522.614 678.496ZM522.614 735.31C512.459 735.31 507.82 725.505 507.82 710.361C507.82 695.129 512.459 685.324 522.614 685.324C532.856 685.324 537.496 695.129 537.496 710.361C537.496 725.505 532.856 735.31 522.614 735.31ZM555.617 741H591.246V734.172H577.852V679.722H568.31L555.529 688.388V696.442L568.398 687.775H570.149V734.172H555.617V741ZM622.315 678.496C609.359 678.496 599.817 688.301 599.817 710.361C599.817 732.421 609.359 742.138 622.315 742.138C635.271 742.138 644.9 732.421 644.9 710.361C644.9 688.301 635.271 678.496 622.315 678.496ZM622.315 735.31C612.16 735.31 607.52 725.505 607.52 710.361C607.52 695.129 612.16 685.324 622.315 685.324C632.557 685.324 637.196 695.129 637.196 710.361C637.196 725.505 632.557 735.31 622.315 735.31ZM655.317 741H690.946V734.172H677.553V679.722H668.011L655.23 688.388V696.442L668.098 687.775H669.849V734.172H655.317V741ZM722.015 678.496C709.059 678.496 699.517 688.301 699.517 710.361C699.517 732.421 709.059 742.138 722.015 742.138C734.971 742.138 744.601 732.421 744.601 710.361C744.601 688.301 734.971 678.496 722.015 678.496ZM722.015 735.31C711.86 735.31 707.221 725.505 707.221 710.361C707.221 695.129 711.86 685.324 722.015 685.324C732.257 685.324 736.897 695.129 736.897 710.361C736.897 725.505 732.257 735.31 722.015 735.31ZM777.166 678.496C764.21 678.496 754.668 688.301 754.668 710.361C754.668 732.421 764.21 742.138 777.166 742.138C790.122 742.138 799.751 732.421 799.751 710.361C799.751 688.301 790.122 678.496 777.166 678.496ZM777.166 735.31C767.011 735.31 762.371 725.505 762.371 710.361C762.371 695.129 767.011 685.324 777.166 685.324C787.408 685.324 792.048 695.129 792.048 710.361C792.048 725.505 787.408 735.31 777.166 735.31ZM810.168 741H845.798V734.172H832.404V679.722H822.862L810.081 688.388V696.442L822.949 687.775H824.7V734.172H810.168V741ZM876.866 678.496C863.91 678.496 854.368 688.301 854.368 710.361C854.368 732.421 863.91 742.138 876.866 742.138C889.822 742.138 899.452 732.421 899.452 710.361C899.452 688.301 889.822 678.496 876.866 678.496ZM876.866 735.31C866.711 735.31 862.072 725.505 862.072 710.361C862.072 695.129 866.711 685.324 876.866 685.324C887.108 685.324 891.748 695.129 891.748 710.361C891.748 725.505 887.108 735.31 876.866 735.31ZM909.869 741H945.498V734.172H932.104V679.722H922.562L909.781 688.388V696.442L922.65 687.775H924.401V734.172H909.869V741ZM976.567 678.496C963.611 678.496 954.069 688.301 954.069 710.361C954.069 732.421 963.611 742.138 976.567 742.138C989.523 742.138 999.152 732.421 999.152 710.361C999.152 688.301 989.523 678.496 976.567 678.496ZM976.567 735.31C966.412 735.31 961.772 725.505 961.772 710.361C961.772 695.129 966.412 685.324 976.567 685.324C986.809 685.324 991.449 695.129 991.449 710.361C991.449 725.505 986.809 735.31 976.567 735.31ZM1009.57 741H1045.2V734.172H1031.8V679.722H1022.26L1009.48 688.388V696.442L1022.35 687.775H1024.1V734.172H1009.57V741ZM1076.27 678.496C1063.31 678.496 1053.77 688.301 1053.77 710.361C1053.77 732.421 1063.31 742.138 1076.27 742.138C1089.22 742.138 1098.85 732.421 1098.85 710.361C1098.85 688.301 1089.22 678.496 1076.27 678.496ZM1076.27 735.31C1066.11 735.31 1061.47 725.505 1061.47 710.361C1061.47 695.129 1066.11 685.324 1076.27 685.324C1086.51 685.324 1091.15 695.129 1091.15 710.361C1091.15 725.505 1086.51 735.31 1076.27 735.31ZM1109.27 741H1144.9V734.172H1131.51V679.722H1121.96L1109.18 688.388V696.442L1122.05 687.775H1123.8V734.172H1109.27V741ZM1175.97 678.496C1163.01 678.496 1153.47 688.301 1153.47 710.361C1153.47 732.421 1163.01 742.138 1175.97 742.138C1188.92 742.138 1198.55 732.421 1198.55 710.361C1198.55 688.301 1188.92 678.496 1175.97 678.496ZM1175.97 735.31C1165.81 735.31 1161.17 725.505 1161.17 710.361C1161.17 695.129 1165.81 685.324 1175.97 685.324C1186.21 685.324 1190.85 695.129 1190.85 710.361C1190.85 725.505 1186.21 735.31 1175.97 735.31ZM1208.97 741H1244.6V734.172H1231.21V679.722H1221.66L1208.88 688.388V696.442L1221.75 687.775H1223.5V734.172H1208.97V741ZM1275.67 678.496C1262.71 678.496 1253.17 688.301 1253.17 710.361C1253.17 732.421 1262.71 742.138 1275.67 742.138C1288.62 742.138 1298.25 732.421 1298.25 710.361C1298.25 688.301 1288.62 678.496 1275.67 678.496ZM1275.67 735.31C1265.51 735.31 1260.87 725.505 1260.87 710.361C1260.87 695.129 1265.51 685.324 1275.67 685.324C1285.91 685.324 1290.55 695.129 1290.55 710.361C1290.55 725.505 1285.91 735.31 1275.67 735.31ZM1308.67 741H1344.3V734.172H1330.91V679.722H1321.36L1308.58 688.388V696.442L1321.45 687.775H1323.2V734.172H1308.67V741ZM1375.37 678.496C1362.41 678.496 1352.87 688.301 1352.87 710.361C1352.87 732.421 1362.41 742.138 1375.37 742.138C1388.32 742.138 1397.95 732.421 1397.95 710.361C1397.95 688.301 1388.32 678.496 1375.37 678.496ZM1375.37 735.31C1365.21 735.31 1360.57 725.505 1360.57 710.361C1360.57 695.129 1365.21 685.324 1375.37 685.324C1385.61 685.324 1390.25 695.129 1390.25 710.361C1390.25 725.505 1385.61 735.31 1375.37 735.31ZM1430.52 678.496C1417.56 678.496 1408.02 688.301 1408.02 710.361C1408.02 732.421 1417.56 742.138 1430.52 742.138C1443.48 742.138 1453.1 732.421 1453.1 710.361C1453.1 688.301 1443.48 678.496 1430.52 678.496ZM1430.52 735.31C1420.36 735.31 1415.73 725.505 1415.73 710.361C1415.73 695.129 1420.36 685.324 1430.52 685.324C1440.76 685.324 1445.4 695.129 1445.4 710.361C1445.4 725.505 1440.76 735.31 1430.52 735.31Z" fill="#274867"/>
<path d="M23.1649 834H58.7939V827.172H45.4002V772.722H35.8583L23.0774 781.388V789.442L35.9458 780.775H37.6966V827.172H23.1649V834ZM67.2771 834H102.906V827.172H89.5125V772.722H79.9705L67.1896 781.388V789.442L80.0581 780.775H81.8089V827.172H67.2771V834ZM133.537 771.496C120.581 771.496 111.039 781.301 111.039 803.361C111.039 825.421 120.581 835.138 133.537 835.138C146.493 835.138 156.123 825.421 156.123 803.361C156.123 781.301 146.493 771.496 133.537 771.496ZM133.537 828.31C123.382 828.31 118.743 818.505 118.743 803.361C118.743 788.129 123.382 778.324 133.537 778.324C143.779 778.324 148.419 788.129 148.419 803.361C148.419 818.505 143.779 828.31 133.537 828.31ZM166.102 834H201.731V827.172H188.338V772.722H178.796L166.015 781.388V789.442L178.883 780.775H180.634V827.172H166.102V834ZM210.215 834H245.844V827.172H232.45V772.722H222.908L210.127 781.388V789.442L222.995 780.775H224.746V827.172H210.215V834ZM276.475 771.496C263.519 771.496 253.977 781.301 253.977 803.361C253.977 825.421 263.519 835.138 276.475 835.138C289.431 835.138 299.06 825.421 299.06 803.361C299.06 781.301 289.431 771.496 276.475 771.496ZM276.475 828.31C266.32 828.31 261.68 818.505 261.68 803.361C261.68 788.129 266.32 778.324 276.475 778.324C286.717 778.324 291.356 788.129 291.356 803.361C291.356 818.505 286.717 828.31 276.475 828.31ZM309.04 834H344.669V827.172H331.275V772.722H321.733L308.952 781.388V789.442L321.821 780.775H323.571V827.172H309.04V834ZM375.3 771.496C362.344 771.496 352.802 781.301 352.802 803.361C352.802 825.421 362.344 835.138 375.3 835.138C388.256 835.138 397.885 825.421 397.885 803.361C397.885 781.301 388.256 771.496 375.3 771.496ZM375.3 828.31C365.145 828.31 360.505 818.505 360.505 803.361C360.505 788.129 365.145 778.324 375.3 778.324C385.542 778.324 390.182 788.129 390.182 803.361C390.182 818.505 385.542 828.31 375.3 828.31ZM407.865 834H443.494V827.172H430.1V772.722H420.558L407.777 781.388V789.442L420.646 780.775H422.396V827.172H407.865V834ZM474.125 771.496C461.169 771.496 451.627 781.301 451.627 803.361C451.627 825.421 461.169 835.138 474.125 835.138C487.081 835.138 496.71 825.421 496.71 803.361C496.71 781.301 487.081 771.496 474.125 771.496ZM474.125 828.31C463.97 828.31 459.33 818.505 459.33 803.361C459.33 788.129 463.97 778.324 474.125 778.324C484.367 778.324 489.007 788.129 489.007 803.361C489.007 818.505 484.367 828.31 474.125 828.31ZM506.69 834H542.319V827.172H528.925V772.722H519.383L506.602 781.388V789.442L519.471 780.775H521.222V827.172H506.69V834ZM572.95 771.496C559.994 771.496 550.452 781.301 550.452 803.361C550.452 825.421 559.994 835.138 572.95 835.138C585.906 835.138 595.535 825.421 595.535 803.361C595.535 781.301 585.906 771.496 572.95 771.496ZM572.95 828.31C562.795 828.31 558.156 818.505 558.156 803.361C558.156 788.129 562.795 778.324 572.95 778.324C583.192 778.324 587.832 788.129 587.832 803.361C587.832 818.505 583.192 828.31 572.95 828.31ZM605.515 834H641.144V827.172H627.75V772.722H618.208L605.427 781.388V789.442L618.296 780.775H620.047V827.172H605.515V834ZM671.775 771.496C658.819 771.496 649.277 781.301 649.277 803.361C649.277 825.421 658.819 835.138 671.775 835.138C684.731 835.138 694.36 825.421 694.36 803.361C694.36 781.301 684.731 771.496 671.775 771.496ZM671.775 828.31C661.62 828.31 656.981 818.505 656.981 803.361C656.981 788.129 661.62 778.324 671.775 778.324C682.017 778.324 686.657 788.129 686.657 803.361C686.657 818.505 682.017 828.31 671.775 828.31ZM726.488 771.496C713.532 771.496 703.99 781.301 703.99 803.361C703.99 825.421 713.532 835.138 726.488 835.138C739.444 835.138 749.073 825.421 749.073 803.361C749.073 781.301 739.444 771.496 726.488 771.496ZM726.488 828.31C716.333 828.31 711.694 818.505 711.694 803.361C711.694 788.129 716.333 778.324 726.488 778.324C736.73 778.324 741.37 788.129 741.37 803.361C741.37 818.505 736.73 828.31 726.488 828.31ZM759.053 834H794.682V827.172H781.288V772.722H771.746L758.965 781.388V789.442L771.834 780.775H773.585V827.172H759.053V834ZM825.313 771.496C812.357 771.496 802.815 781.301 802.815 803.361C802.815 825.421 812.357 835.138 825.313 835.138C838.269 835.138 847.899 825.421 847.899 803.361C847.899 781.301 838.269 771.496 825.313 771.496ZM825.313 828.31C815.158 828.31 810.519 818.505 810.519 803.361C810.519 788.129 815.158 778.324 825.313 778.324C835.555 778.324 840.195 788.129 840.195 803.361C840.195 818.505 835.555 828.31 825.313 828.31ZM857.878 834H893.507V827.172H880.113V772.722H870.571L857.791 781.388V789.442L870.659 780.775H872.41V827.172H857.878V834ZM924.138 771.496C911.182 771.496 901.64 781.301 901.64 803.361C901.64 825.421 911.182 835.138 924.138 835.138C937.094 835.138 946.724 825.421 946.724 803.361C946.724 781.301 937.094 771.496 924.138 771.496ZM924.138 828.31C913.983 828.31 909.344 818.505 909.344 803.361C909.344 788.129 913.983 778.324 924.138 778.324C934.38 778.324 939.02 788.129 939.02 803.361C939.02 818.505 934.38 828.31 924.138 828.31ZM978.851 771.496C965.895 771.496 956.353 781.301 956.353 803.361C956.353 825.421 965.895 835.138 978.851 835.138C991.807 835.138 1001.44 825.421 1001.44 803.361C1001.44 781.301 991.807 771.496 978.851 771.496ZM978.851 828.31C968.696 828.31 964.057 818.505 964.057 803.361C964.057 788.129 968.696 778.324 978.851 778.324C989.093 778.324 993.733 788.129 993.733 803.361C993.733 818.505 989.093 828.31 978.851 828.31ZM1011.42 834H1047.05V827.172H1033.65V772.722H1024.11L1011.33 781.388V789.442L1024.2 780.775H1025.95V827.172H1011.42V834ZM1077.68 771.496C1064.72 771.496 1055.18 781.301 1055.18 803.361C1055.18 825.421 1064.72 835.138 1077.68 835.138C1090.63 835.138 1100.26 825.421 1100.26 803.361C1100.26 781.301 1090.63 771.496 1077.68 771.496ZM1077.68 828.31C1067.52 828.31 1062.88 818.505 1062.88 803.361C1062.88 788.129 1067.52 778.324 1077.68 778.324C1087.92 778.324 1092.56 788.129 1092.56 803.361C1092.56 818.505 1087.92 828.31 1077.68 828.31ZM1110.24 834H1145.87V827.172H1132.48V772.722H1122.93L1110.15 781.388V789.442L1123.02 780.775H1124.77V827.172H1110.24V834ZM1176.5 771.496C1163.55 771.496 1154 781.301 1154 803.361C1154 825.421 1163.55 835.138 1176.5 835.138C1189.46 835.138 1199.09 825.421 1199.09 803.361C1199.09 781.301 1189.46 771.496 1176.5 771.496ZM1176.5 828.31C1166.35 828.31 1161.71 818.505 1161.71 803.361C1161.71 788.129 1166.35 778.324 1176.5 778.324C1186.74 778.324 1191.38 788.129 1191.38 803.361C1191.38 818.505 1186.74 828.31 1176.5 828.31ZM1209.07 834H1244.7V827.172H1231.3V772.722H1221.76L1208.98 781.388V789.442L1221.85 780.775H1223.6V827.172H1209.07V834ZM1275.33 771.496C1262.37 771.496 1252.83 781.301 1252.83 803.361C1252.83 825.421 1262.37 835.138 1275.33 835.138C1288.28 835.138 1297.91 825.421 1297.91 803.361C1297.91 781.301 1288.28 771.496 1275.33 771.496ZM1275.33 828.31C1265.17 828.31 1260.53 818.505 1260.53 803.361C1260.53 788.129 1265.17 778.324 1275.33 778.324C1285.57 778.324 1290.21 788.129 1290.21 803.361C1290.21 818.505 1285.57 828.31 1275.33 828.31ZM1330.04 771.496C1317.08 771.496 1307.54 781.301 1307.54 803.361C1307.54 825.421 1317.08 835.138 1330.04 835.138C1343 835.138 1352.62 825.421 1352.62 803.361C1352.62 781.301 1343 771.496 1330.04 771.496ZM1330.04 828.31C1319.88 828.31 1315.24 818.505 1315.24 803.361C1315.24 788.129 1319.88 778.324 1330.04 778.324C1340.28 778.324 1344.92 788.129 1344.92 803.361C1344.92 818.505 1340.28 828.31 1330.04 828.31ZM1362.6 834H1398.23V827.172H1384.84V772.722H1375.3L1362.52 781.388V789.442L1375.39 780.775H1377.14V827.172H1362.6V834ZM1428.86 771.496C1415.91 771.496 1406.37 781.301 1406.37 803.361C1406.37 825.421 1415.91 835.138 1428.86 835.138C1441.82 835.138 1451.45 825.421 1451.45 803.361C1451.45 781.301 1441.82 771.496 1428.86 771.496ZM1428.86 828.31C1418.71 828.31 1414.07 818.505 1414.07 803.361C1414.07 788.129 1418.71 778.324 1428.86 778.324C1439.11 778.324 1443.75 788.129 1443.75 803.361C1443.75 818.505 1439.11 828.31 1428.86 828.31Z" fill="#274867"/>
<path d="M23.1649 927H58.7939V920.172H45.4002V865.722H35.8583L23.0774 874.388V882.442L35.9458 873.775H37.6966V920.172H23.1649V927ZM89.4249 864.496C76.4689 864.496 66.927 874.301 66.927 896.361C66.927 918.421 76.4689 928.138 89.4249 928.138C102.381 928.138 112.01 918.421 112.01 896.361C112.01 874.301 102.381 864.496 89.4249 864.496ZM89.4249 921.31C79.2702 921.31 74.6306 911.505 74.6306 896.361C74.6306 881.129 79.2702 871.324 89.4249 871.324C99.6672 871.324 104.307 881.129 104.307 896.361C104.307 911.505 99.6672 921.31 89.4249 921.31ZM144.138 864.496C131.182 864.496 121.64 874.301 121.64 896.361C121.64 918.421 131.182 928.138 144.138 928.138C157.094 928.138 166.723 918.421 166.723 896.361C166.723 874.301 157.094 864.496 144.138 864.496ZM144.138 921.31C133.983 921.31 129.343 911.505 129.343 896.361C129.343 881.129 133.983 871.324 144.138 871.324C154.38 871.324 159.02 881.129 159.02 896.361C159.02 911.505 154.38 921.31 144.138 921.31ZM176.703 927H212.332V920.172H198.938V865.722H189.396L176.615 874.388V882.442L189.484 873.775H191.235V920.172H176.703V927ZM242.963 864.496C230.007 864.496 220.465 874.301 220.465 896.361C220.465 918.421 230.007 928.138 242.963 928.138C255.919 928.138 265.548 918.421 265.548 896.361C265.548 874.301 255.919 864.496 242.963 864.496ZM242.963 921.31C232.808 921.31 228.169 911.505 228.169 896.361C228.169 881.129 232.808 871.324 242.963 871.324C253.205 871.324 257.845 881.129 257.845 896.361C257.845 911.505 253.205 921.31 242.963 921.31ZM275.528 927H311.157V920.172H297.763V865.722H288.221L275.44 874.388V882.442L288.309 873.775H290.06V920.172H275.528V927ZM341.788 864.496C328.832 864.496 319.29 874.301 319.29 896.361C319.29 918.421 328.832 928.138 341.788 928.138C354.744 928.138 364.373 918.421 364.373 896.361C364.373 874.301 354.744 864.496 341.788 864.496ZM341.788 921.31C331.633 921.31 326.994 911.505 326.994 896.361C326.994 881.129 331.633 871.324 341.788 871.324C352.03 871.324 356.67 881.129 356.67 896.361C356.67 911.505 352.03 921.31 341.788 921.31ZM396.501 864.496C383.545 864.496 374.003 874.301 374.003 896.361C374.003 918.421 383.545 928.138 396.501 928.138C409.457 928.138 419.086 918.421 419.086 896.361C419.086 874.301 409.457 864.496 396.501 864.496ZM396.501 921.31C386.346 921.31 381.707 911.505 381.707 896.361C381.707 881.129 386.346 871.324 396.501 871.324C406.743 871.324 411.383 881.129 411.383 896.361C411.383 911.505 406.743 921.31 396.501 921.31ZM429.066 927H464.695V920.172H451.301V865.722H441.759L428.978 874.388V882.442L441.847 873.775H443.598V920.172H429.066V927ZM495.326 864.496C482.37 864.496 472.828 874.301 472.828 896.361C472.828 918.421 482.37 928.138 495.326 928.138C508.282 928.138 517.911 918.421 517.911 896.361C517.911 874.301 508.282 864.496 495.326 864.496ZM495.326 921.31C485.171 921.31 480.532 911.505 480.532 896.361C480.532 881.129 485.171 871.324 495.326 871.324C505.568 871.324 510.208 881.129 510.208 896.361C510.208 911.505 505.568 921.31 495.326 921.31ZM527.891 927H563.52V920.172H550.126V865.722H540.584L527.804 874.388V882.442L540.672 873.775H542.423V920.172H527.891V927ZM594.151 864.496C581.195 864.496 571.653 874.301 571.653 896.361C571.653 918.421 581.195 928.138 594.151 928.138C607.107 928.138 616.737 918.421 616.737 896.361C616.737 874.301 607.107 864.496 594.151 864.496ZM594.151 921.31C583.996 921.31 579.357 911.505 579.357 896.361C579.357 881.129 583.996 871.324 594.151 871.324C604.393 871.324 609.033 881.129 609.033 896.361C609.033 911.505 604.393 921.31 594.151 921.31ZM626.716 927H662.345V920.172H648.952V865.722H639.41L626.629 874.388V882.442L639.497 873.775H641.248V920.172H626.716V927ZM692.976 864.496C680.02 864.496 670.478 874.301 670.478 896.361C670.478 918.421 680.02 928.138 692.976 928.138C705.932 928.138 715.562 918.421 715.562 896.361C715.562 874.301 705.932 864.496 692.976 864.496ZM692.976 921.31C682.822 921.31 678.182 911.505 678.182 896.361C678.182 881.129 682.822 871.324 692.976 871.324C703.218 871.324 707.858 881.129 707.858 896.361C707.858 911.505 703.218 921.31 692.976 921.31ZM747.689 864.496C734.733 864.496 725.191 874.301 725.191 896.361C725.191 918.421 734.733 928.138 747.689 928.138C760.645 928.138 770.275 918.421 770.275 896.361C770.275 874.301 760.645 864.496 747.689 864.496ZM747.689 921.31C737.534 921.31 732.895 911.505 732.895 896.361C732.895 881.129 737.534 871.324 747.689 871.324C757.931 871.324 762.571 881.129 762.571 896.361C762.571 911.505 757.931 921.31 747.689 921.31ZM780.254 927H815.883V920.172H802.49V865.722H792.948L780.167 874.388V882.442L793.035 873.775H794.786V920.172H780.254V927ZM846.514 864.496C833.558 864.496 824.016 874.301 824.016 896.361C824.016 918.421 833.558 928.138 846.514 928.138C859.47 928.138 869.1 918.421 869.1 896.361C869.1 874.301 859.47 864.496 846.514 864.496ZM846.514 921.31C836.359 921.31 831.72 911.505 831.72 896.361C831.72 881.129 836.359 871.324 846.514 871.324C856.756 871.324 861.396 881.129 861.396 896.361C861.396 911.505 856.756 921.31 846.514 921.31ZM901.227 864.496C888.271 864.496 878.729 874.301 878.729 896.361C878.729 918.421 888.271 928.138 901.227 928.138C914.183 928.138 923.813 918.421 923.813 896.361C923.813 874.301 914.183 864.496 901.227 864.496ZM901.227 921.31C891.072 921.31 886.433 911.505 886.433 896.361C886.433 881.129 891.072 871.324 901.227 871.324C911.469 871.324 916.109 881.129 916.109 896.361C916.109 911.505 911.469 921.31 901.227 921.31ZM933.792 927H969.421V920.172H956.028V865.722H946.486L933.705 874.388V882.442L946.573 873.775H948.324V920.172H933.792V927ZM1000.05 864.496C987.096 864.496 977.554 874.301 977.554 896.361C977.554 918.421 987.096 928.138 1000.05 928.138C1013.01 928.138 1022.64 918.421 1022.64 896.361C1022.64 874.301 1013.01 864.496 1000.05 864.496ZM1000.05 921.31C989.898 921.31 985.258 911.505 985.258 896.361C985.258 881.129 989.898 871.324 1000.05 871.324C1010.29 871.324 1014.93 881.129 1014.93 896.361C1014.93 911.505 1010.29 921.31 1000.05 921.31ZM1032.62 927H1068.25V920.172H1054.85V865.722H1045.31L1032.53 874.388V882.442L1045.4 873.775H1047.15V920.172H1032.62V927ZM1098.88 864.496C1085.92 864.496 1076.38 874.301 1076.38 896.361C1076.38 918.421 1085.92 928.138 1098.88 928.138C1111.83 928.138 1121.46 918.421 1121.46 896.361C1121.46 874.301 1111.83 864.496 1098.88 864.496ZM1098.88 921.31C1088.72 921.31 1084.08 911.505 1084.08 896.361C1084.08 881.129 1088.72 871.324 1098.88 871.324C1109.12 871.324 1113.76 881.129 1113.76 896.361C1113.76 911.505 1109.12 921.31 1098.88 921.31ZM1131.44 927H1167.07V920.172H1153.68V865.722H1144.14L1131.35 874.388V882.442L1144.22 873.775H1145.97V920.172H1131.44V927ZM1175.55 927H1211.18V920.172H1197.79V865.722H1188.25L1175.47 874.388V882.442L1188.34 873.775H1190.09V920.172H1175.55V927ZM1241.81 864.496C1228.86 864.496 1219.32 874.301 1219.32 896.361C1219.32 918.421 1228.86 928.138 1241.81 928.138C1254.77 928.138 1264.4 918.421 1264.4 896.361C1264.4 874.301 1254.77 864.496 1241.81 864.496ZM1241.81 921.31C1231.66 921.31 1227.02 911.505 1227.02 896.361C1227.02 881.129 1231.66 871.324 1241.81 871.324C1252.06 871.324 1256.7 881.129 1256.7 896.361C1256.7 911.505 1252.06 921.31 1241.81 921.31ZM1274.38 927H1310.01V920.172H1296.62V865.722H1287.07L1274.29 874.388V882.442L1287.16 873.775H1288.91V920.172H1274.38V927ZM1340.64 864.496C1327.68 864.496 1318.14 874.301 1318.14 896.361C1318.14 918.421 1327.68 928.138 1340.64 928.138C1353.6 928.138 1363.23 918.421 1363.23 896.361C1363.23 874.301 1353.6 864.496 1340.64 864.496ZM1340.64 921.31C1330.49 921.31 1325.85 911.505 1325.85 896.361C1325.85 881.129 1330.49 871.324 1340.64 871.324C1350.88 871.324 1355.52 881.129 1355.52 896.361C1355.52 911.505 1350.88 921.31 1340.64 921.31ZM1373.2 927H1408.83V920.172H1395.44V865.722H1385.9L1373.12 874.388V882.442L1385.99 873.775H1387.74V920.172H1373.2V927ZM1417.32 927H1452.95V920.172H1439.55V865.722H1430.01L1417.23 874.388V882.442L1430.1 873.775H1431.85V920.172H1417.32V927Z" fill="#274867"/>
<g clip-path="url(#clip1_2564_210)">
<path d="M673.37 492.58L643.328 568.875L761.688 615.481L791.73 539.185L673.37 492.58Z" fill="#007BFF"/>
<path d="M198.816 349.888C146.462 482.846 211.761 633.116 344.625 685.433C477.582 737.786 627.712 672.345 680.067 539.386C732.421 406.427 667.122 256.158 534.258 203.841C401.43 151.431 251.207 216.836 198.816 349.888ZM634.973 521.63C592.437 629.653 470.34 682.812 362.394 640.307C254.447 597.801 201.375 475.667 243.91 367.644C286.446 259.621 408.542 206.461 516.489 248.967C624.529 291.509 677.545 413.513 634.973 521.63Z" fill="#007BFF"/>
<path d="M198.816 349.888C146.462 482.846 211.761 633.116 344.625 685.433C477.582 737.786 627.712 672.345 680.067 539.386C732.421 406.427 667.122 256.158 534.258 203.841C401.43 151.431 251.207 216.836 198.816 349.888ZM650.872 527.89C604.856 644.752 472.945 702.107 356.259 656.161C239.479 610.177 182.218 478.226 228.197 361.457C274.177 244.687 406.124 187.239 522.81 233.186C639.533 279.04 696.888 411.028 650.872 527.89Z" fill="#007BFF"/>
<path d="M720.062 619.188L1082.67 761.97C1106.48 771.343 1133.44 759.605 1142.81 735.786L1152.74 710.571C1162.12 686.752 1150.4 659.784 1126.6 650.411L763.99 507.629L720.062 619.188Z" fill="#274867"/>
</g>
</g>
<defs>
<clipPath id="clip0_2564_210">
<rect width="1474" height="954" fill="white"/>
</clipPath>
<clipPath id="clip1_2564_210">
<rect width="517.682" height="1019.74" fill="white" transform="translate(104 590.684) rotate(-68.5073)"/>
</clipPath>
</defs>
</svg>
